<svg width="16" height="16" viewBox="0 0 16 16" fill="none" xmlns="http://www.w3.org/2000/svg">
<g clip-path="url(#clip0)">
<path d="M2.5 10H4.16663C4.44263 10 4.66663 9.776 4.66663 9.5V7.83337C4.66663 7.55737 4.44263 7.33337 4.16663 7.33337H2.5C2.224 7.33337 2 7.55737 2 7.83337V9.5C2 9.776 2.224 10 2.5 10Z" fill="#7C7C7C"/>
<path d="M2.5 14H4.16663C4.44263 14 4.66663 13.776 4.66663 13.5V11.8334C4.66663 11.5574 4.44263 11.3334 4.16663 11.3334H2.5C2.224 11.3334 2 11.5574 2 11.8334V13.5C2 13.776 2.224 14 2.5 14Z" fill="#7C7C7C"/>
<path d="M7.1665 10H8.83325C9.10925 10 9.33325 9.776 9.33325 9.5V7.83337C9.33325 7.55737 9.10925 7.33337 8.83325 7.33337H7.1665C6.8905 7.33337 6.6665 7.55737 6.6665 7.83337V9.5C6.6665 9.776 6.8905 10 7.1665 10Z" fill="#7C7C7C"/>
<path d="M7.1665 14H8.83325C9.10925 14 9.33325 13.776 9.33325 13.5V11.8334C9.33325 11.5574 9.10925 11.3334 8.83325 11.3334H7.1665C6.8905 11.3334 6.6665 11.5574 6.6665 11.8334V13.5C6.6665 13.776 6.8905 14 7.1665 14Z" fill="#7C7C7C"/>
<path d="M11.8335 10H13.5001C13.7761 10 14.0001 9.776 14.0001 9.5V7.83337C14.0001 7.55737 13.7761 7.33337 13.5001 7.33337H11.8335C11.5575 7.33337 11.3335 7.55737 11.3335 7.83337V9.5C11.3335 9.776 11.5575 10 11.8335 10Z" fill="#7C7C7C"/>
<path d="M14 2H13.3334V0.666626C13.3334 0.298706 13.0347 0 12.6666 0H12C11.632 0 11.3334 0.298706 11.3334 0.666626V2H4.66663V0.666626C4.66663 0.298706 4.36804 0 4 0H3.33337C2.96533 0 2.66663 0.298706 2.66663 0.666626V2H2C0.897339 2 0 2.89734 0 4V14C0 15.1027 0.897339 16 2 16H14C15.1027 16 16 15.1027 16 14V4C16 2.89734 15.1027 2 14 2ZM14.6666 14C14.6666 14.3673 14.3673 14.6666 14 14.6666H2C1.63269 14.6666 1.33337 14.3673 1.33337 14V6.69336H14.6666V14Z" fill="#7C7C7C"/>
</g>
<defs>
<clipPath id="clip0">
<rect width="16" height="16" fill="white"/>
</clipPath>
</defs>
</svg>
