<svg width="12" height="16" viewBox="0 0 12 16" fill="none" xmlns="http://www.w3.org/2000/svg">
<path d="M5.99985 0C3.0591 0 0.666504 2.39259 0.666504 5.33334C0.666504 6.21616 0.887223 7.09147 1.30682 7.86784L5.70819 15.8281C5.76678 15.9342 5.87844 16 5.99985 16C6.12125 16 6.23291 15.9342 6.2915 15.8281L10.6945 7.86522C11.1125 7.09147 11.3332 6.21613 11.3332 5.33331C11.3332 2.39259 8.9406 0 5.99985 0ZM5.99985 8C4.52947 8 3.33319 6.80372 3.33319 5.33334C3.33319 3.86297 4.52947 2.66669 5.99985 2.66669C7.47022 2.66669 8.6665 3.86297 8.6665 5.33334C8.6665 6.80372 7.47022 8 5.99985 8Z" fill="#7C7C7C"/>
</svg>
