<svg width="24" height="24" viewBox="0 0 24 24" fill="none" xmlns="http://www.w3.org/2000/svg">
<g clip-path="url(#clip0)">
<path d="M23.6534 22.1157L15.5096 14.5383C16.8459 12.9961 17.6589 10.9931 17.6589 8.80054C17.6589 3.94718 13.6979 0 8.82999 0C3.96098 0 0 3.94826 0 8.80054C0 13.6528 3.96098 17.6011 8.82999 17.6011C10.7105 17.6011 12.4501 17.0075 13.8848 16.0054L22.1618 23.707C22.3727 23.9031 22.6404 24 22.9082 24C23.201 24 23.4916 23.8835 23.7069 23.6536C24.1178 23.2147 24.0937 22.5263 23.6534 22.1157ZM2.18537 8.80163C2.18537 5.14962 5.16622 2.17944 8.82999 2.17944C12.4938 2.17944 15.4735 5.15071 15.4735 8.80163C15.4735 12.4526 12.4927 15.4238 8.82999 15.4238C5.16512 15.4238 2.18537 12.4526 2.18537 8.80163Z" fill="#1D48B7"/>
</g>
<defs>
<clipPath id="clip0">
<rect width="24" height="24" fill="white"/>
</clipPath>
</defs>
</svg>
