<svg width="24" height="24" viewBox="0 0 24 24" fill="none" xmlns="http://www.w3.org/2000/svg">
<path d="M14.25 0H2.75C1.23 0 0 1.23 0 2.75V18.25C0 19.77 1.23 21 2.75 21H9.34C8.8 19.86 8.5 18.59 8.5 17.25C8.5 16.1 8.72 15 9.13 13.99C9.09 14 9.05 14 9 14H4C3.45 14 3 13.55 3 13C3 12.45 3.45 12 4 12H9C9.38 12 9.72 12.22 9.88 12.54C10.53 11.53 11.37 10.67 12.36 10H4C3.45 10 3 9.55 3 9C3 8.45 3.45 8 4 8H13C13.55 8 14 8.45 14 9C14 9.05 14 9.09 13.99 9.13C14.92 8.75 15.94 8.53 17 8.51V2.75C17 1.23 15.77 0 14.25 0V0ZM8 6H4C3.45 6 3 5.55 3 5C3 4.45 3.45 4 4 4H8C8.55 4 9 4.45 9 5C9 5.55 8.55 6 8 6Z" fill="white"/>
<path d="M17.25 10.5C13.528 10.5 10.5 13.528 10.5 17.25C10.5 20.972 13.528 24 17.25 24C20.972 24 24 20.972 24 17.25C24 13.528 20.972 10.5 17.25 10.5ZM20 18.25H18.25V20C18.25 20.552 17.802 21 17.25 21C16.698 21 16.25 20.552 16.25 20V18.25H14.5C13.948 18.25 13.5 17.802 13.5 17.25C13.5 16.698 13.948 16.25 14.5 16.25H16.25V14.5C16.25 13.948 16.698 13.5 17.25 13.5C17.802 13.5 18.25 13.948 18.25 14.5V16.25H20C20.552 16.25 21 16.698 21 17.25C21 17.802 20.552 18.25 20 18.25Z" fill="white"/>
</svg>
