<svg width="32" height="28" viewBox="0 0 32 28" fill="none" xmlns="http://www.w3.org/2000/svg">
<path d="M30.6667 0.666504H25.3333V4.6665H22.6667V0.666504H17.3333V4.6665H14.6667V0.666504H9.33333V4.6665H6.66667V0.666504H1.33333C0.979711 0.666504 0.640573 0.80698 0.390524 1.05703C0.140476 1.30708 0 1.64621 0 1.99984L0 25.9998C0 26.3535 0.140476 26.6926 0.390524 26.9426C0.640573 27.1927 0.979711 27.3332 1.33333 27.3332H30.6667C31.0203 27.3332 31.3594 27.1927 31.6095 26.9426C31.8595 26.6926 32 26.3535 32 25.9998V1.99984C32 1.64621 31.8595 1.30708 31.6095 1.05703C31.3594 0.80698 31.0203 0.666504 30.6667 0.666504ZM24.5585 17.7515L22.6667 16.3998V21.9998C22.6667 22.3535 22.5262 22.6926 22.2761 22.9426C22.0261 23.1927 21.687 23.3332 21.3333 23.3332H18V17.9998C18 17.6462 17.8595 17.3071 17.6095 17.057C17.3594 16.807 17.0203 16.6665 16.6667 16.6665H15.3333C14.9797 16.6665 14.6406 16.807 14.3905 17.057C14.1405 17.3071 14 17.6462 14 17.9998V23.3332H10.6667C10.313 23.3332 9.97391 23.1927 9.72386 22.9426C9.47381 22.6926 9.33333 22.3535 9.33333 21.9998V16.3998L7.44167 17.7515L5.89167 15.5815L15.225 8.91483C15.4521 8.75563 15.7227 8.67022 16 8.67022C16.2773 8.67022 16.5479 8.75563 16.775 8.91483L26.1083 15.5815L24.5585 17.7515Z" fill="white"/>
</svg>
