<svg width="32" height="32" viewBox="0 0 32 32" fill="none" xmlns="http://www.w3.org/2000/svg">
<path d="M28 4H26.6667V1.33325C26.6667 0.597412 26.0693 0 25.3333 0H24C23.2639 0 22.6667 0.597412 22.6667 1.33325V4H9.33325V1.33325C9.33325 0.597412 8.73608 0 8 0H6.66675C5.93066 0 5.33325 0.597412 5.33325 1.33325V4H4C1.79468 4 0 5.79468 0 8V28C0 30.2053 1.79468 32 4 32H28C30.2053 32 32 30.2053 32 28V8C32 5.79468 30.2053 4 28 4ZM29.3333 28C29.3333 28.7346 28.7346 29.3333 28 29.3333H4C3.26538 29.3333 2.66675 28.7346 2.66675 28V13.3867H29.3333V28Z" fill="white"/>
</svg>
