<svg width="32" height="32" viewBox="0 0 32 32" fill="none" xmlns="http://www.w3.org/2000/svg">
<g clip-path="url(#clip0)">
<path d="M12.3333 0H2.33325C1.04663 0 0 1.04663 0 2.33325V8.33325C0 9.62012 1.04663 10.6667 2.33325 10.6667H12.3333C13.6201 10.6667 14.6667 9.62012 14.6667 8.33325V2.33325C14.6667 1.04663 13.6201 0 12.3333 0Z" fill="white"/>
<path d="M12.3333 13.333H2.33325C1.04663 13.333 0 14.3796 0 15.6665V29.6665C0 30.9531 1.04663 31.9998 2.33325 31.9998H12.3333C13.6201 31.9998 14.6667 30.9531 14.6667 29.6665V15.6665C14.6667 14.3796 13.6201 13.333 12.3333 13.333Z" fill="white"/>
<path d="M29.6667 21.333H19.6667C18.3799 21.333 17.3333 22.3796 17.3333 23.6665V29.6665C17.3333 30.9531 18.3799 31.9998 19.6667 31.9998H29.6667C30.9534 31.9998 32 30.9531 32 29.6665V23.6665C32 22.3796 30.9534 21.333 29.6667 21.333Z" fill="white"/>
<path d="M29.6667 0H19.6667C18.3799 0 17.3333 1.04663 17.3333 2.33325V16.3333C17.3333 17.6201 18.3799 18.6667 19.6667 18.6667H29.6667C30.9534 18.6667 32 17.6201 32 16.3333V2.33325C32 1.04663 30.9534 0 29.6667 0V0Z" fill="white"/>
</g>
<defs>
<clipPath id="clip0">
<rect width="32" height="32" fill="white"/>
</clipPath>
</defs>
</svg>
