<svg width="32" height="32" viewBox="0 0 32 32" fill="none" xmlns="http://www.w3.org/2000/svg">
<g clip-path="url(#clip0)">
<path d="M12.3333 0H2.33325C1.04663 0 0 1.04663 0 2.33325V8.33325C0 9.62012 1.04663 10.6667 2.33325 10.6667H12.3333C13.6201 10.6667 14.6667 9.62012 14.6667 8.33325V2.33325C14.6667 1.04663 13.6201 0 12.3333 0Z" fill="#1D48B7"/>
<path d="M12.3333 13.333H2.33325C1.04663 13.333 0 14.3796 0 15.6665V29.6665C0 30.9531 1.04663 31.9998 2.33325 31.9998H12.3333C13.6201 31.9998 14.6667 30.9531 14.6667 29.6665V15.6665C14.6667 14.3796 13.6201 13.333 12.3333 13.333Z" fill="#1D48B7"/>
<path d="M29.667 21.333H19.667C18.3801 21.333 17.3335 22.3796 17.3335 23.6665V29.6665C17.3335 30.9531 18.3801 31.9998 19.667 31.9998H29.667C30.9536 31.9998 32.0002 30.9531 32.0002 29.6665V23.6665C32.0002 22.3796 30.9536 21.333 29.667 21.333Z" fill="#1D48B7"/>
<path d="M29.667 0H19.667C18.3801 0 17.3335 1.04663 17.3335 2.33325V16.3333C17.3335 17.6201 18.3801 18.6667 19.667 18.6667H29.667C30.9536 18.6667 32.0002 17.6201 32.0002 16.3333V2.33325C32.0002 1.04663 30.9536 0 29.667 0V0Z" fill="#1D48B7"/>
</g>
<defs>
<clipPath id="clip0">
<rect width="32" height="32" fill="white"/>
</clipPath>
</defs>
</svg>
