<svg width="32" height="32" viewBox="0 0 32 32" fill="none" xmlns="http://www.w3.org/2000/svg">
<path d="M21.143 18.9755C22.0898 18.9755 22.8573 18.208 22.8573 17.2612C22.8573 16.3144 22.0898 15.5469 21.143 15.5469C20.1962 15.5469 19.4287 16.3144 19.4287 17.2612C19.4287 18.208 20.1962 18.9755 21.143 18.9755Z" fill="white"/>
<path d="M28 18.9755C28.9467 18.9755 29.7143 18.208 29.7143 17.2612C29.7143 16.3144 28.9467 15.5469 28 15.5469C27.0532 15.5469 26.2856 16.3144 26.2856 17.2612C26.2856 18.208 27.0532 18.9755 28 18.9755Z" fill="white"/>
<path d="M21.1446 2.40381H0.569687C0.255437 2.40381 0 2.65925 0 2.9735V16.6912C0 17.0055 0.255437 17.2609 0.569687 17.2609H2.28569C2.60113 17.2609 2.85713 17.5163 2.85713 17.8323V22.1672L7.596 17.4283C7.70344 17.3209 7.84856 17.2609 8 17.2609H9.14287V10.4021C9.14287 10.1661 9.19088 9.941 9.27775 9.73643C9.53831 9.12212 10.1474 8.68956 10.8554 8.68956H21.7143V2.9735C21.7143 2.65925 21.4589 2.40381 21.1446 2.40381Z" fill="white"/>
<path d="M14.2856 18.9755C15.2324 18.9755 15.9999 18.208 15.9999 17.2612C15.9999 16.3144 15.2324 15.5469 14.2856 15.5469C13.3388 15.5469 12.5713 16.3144 12.5713 17.2612C12.5713 18.208 13.3388 18.9755 14.2856 18.9755Z" fill="white"/>
<path d="M31.4303 9.83252H22.2856H10.8554C10.6983 9.83252 10.556 9.89652 10.4525 9.99939C10.3491 10.1023 10.2856 10.2451 10.2856 10.4023V17.8326V24.12C10.2856 24.4343 10.5411 24.6896 10.8553 24.6896H23.9999C24.1514 24.6896 24.2971 24.7496 24.4039 24.8571L29.1428 29.596V25.2611C29.1428 24.9451 29.3988 24.6896 29.7143 24.6896H31.4303C31.7439 24.6896 31.9999 24.4342 31.9999 24.12V10.4023C31.9999 10.088 31.7445 9.83252 31.4303 9.83252ZM14.2856 20.1183C12.7102 20.1183 11.4285 18.8366 11.4285 17.2611C11.4285 15.6857 12.7102 14.404 14.2856 14.404C15.8611 14.404 17.1428 15.6857 17.1428 17.2611C17.1428 18.8366 15.8611 20.1183 14.2856 20.1183ZM21.1428 20.1183C19.5674 20.1183 18.2857 18.8366 18.2857 17.2611C18.2857 15.6857 19.5674 14.404 21.1428 14.404C22.7183 14.404 23.9999 15.6856 23.9999 17.2611C23.9999 18.8365 22.7183 20.1183 21.1428 20.1183ZM27.9999 20.1183C26.4245 20.1183 25.1428 18.8366 25.1428 17.2611C25.1428 15.6857 26.4245 14.404 27.9999 14.404C29.5754 14.404 30.8571 15.6857 30.8571 17.2611C30.8571 18.8366 29.5754 20.1183 27.9999 20.1183Z" fill="white"/>
</svg>
