<svg width="32" height="32" viewBox="0 0 32 32" fill="none" xmlns="http://www.w3.org/2000/svg">
<path d="M20.0001 15.9992C20.0001 18.2045 18.2054 19.9991 16.0002 19.9991H10.6669V30.6657C10.6669 31.4017 11.2629 31.999 12.0002 31.999H30.6667C31.404 31.999 32 31.4017 32 30.6657V1.3327C32 0.596703 31.404 -0.00060463 30.6667 -0.00060463H12.0002C11.2629 -0.00060463 10.6669 0.596703 10.6669 1.3327V10.6659V11.9992H16.0002C18.2054 11.9992 20.0001 13.7939 20.0001 15.9992Z" fill="white"/>
<path d="M0.300282 15.1576C0.296219 15.1626 0.292843 15.1679 0.288906 15.1729C0.266031 15.2018 0.243845 15.2312 0.223408 15.262C0.213783 15.2763 0.205656 15.2913 0.196655 15.306C0.183155 15.3281 0.169346 15.35 0.157158 15.3728C0.147097 15.3916 0.138657 15.411 0.129593 15.4301C0.120218 15.4499 0.110283 15.4694 0.101847 15.4897C0.092783 15.5116 0.0854092 15.5339 0.0775967 15.5561C0.0710964 15.5745 0.0639095 15.5926 0.0582218 15.6115C0.0502834 15.6376 0.04422 15.664 0.0379086 15.6905C0.0342216 15.706 0.0297203 15.7211 0.0265331 15.7368C0.0192204 15.7731 0.0140972 15.8097 0.00984764 15.8464C0.00909805 15.8527 0.00778389 15.8588 0.00715828 15.8652C-0.00190353 15.9548 -0.00190353 16.0452 0.00715828 16.1348C0.00778389 16.1412 0.009161 16.1473 0.00984764 16.1536C0.0140972 16.1903 0.0192833 16.2269 0.0265331 16.2632C0.0296574 16.2789 0.0341587 16.2941 0.0379086 16.3096C0.04422 16.336 0.0502834 16.3625 0.0582218 16.3886C0.0639095 16.4074 0.0710964 16.4255 0.0775967 16.4439C0.0854702 16.4661 0.092783 16.4885 0.101847 16.5103C0.110283 16.5306 0.120155 16.5501 0.129593 16.5699C0.138657 16.5891 0.147097 16.6084 0.157158 16.6272C0.169409 16.6501 0.183155 16.6719 0.196655 16.694C0.205656 16.7087 0.213783 16.7237 0.223408 16.7381C0.243845 16.7688 0.266031 16.7983 0.288906 16.8271C0.292843 16.8321 0.296219 16.8374 0.300282 16.8424C0.33028 16.8792 0.362219 16.9143 0.395967 16.9477L5.72429 22.276C6.2456 22.7973 7.08828 22.7973 7.60959 22.276C8.13089 21.7547 8.13089 20.912 7.60959 20.3907L4.5523 17.3334H16.0002C16.7375 17.3334 17.3335 16.7361 17.3335 16.0001C17.3335 15.2641 16.7375 14.6668 16.0002 14.6668H4.5523L7.60959 11.6096C8.13089 11.0882 8.13089 10.2456 7.60959 9.72426C7.34959 9.46426 7.00828 9.33358 6.66691 9.33358C6.3256 9.33358 5.98423 9.46426 5.72423 9.72426L0.395906 15.0526C0.362282 15.0857 0.330343 15.1208 0.300282 15.1576Z" fill="white"/>
</svg>
