<svg width="32" height="32" viewBox="0 0 32 32" fill="none" xmlns="http://www.w3.org/2000/svg">
<path d="M31.5004 13.9984C31.2429 13.8368 29.2247 12.6278 28.4226 12.2608L27.4286 9.86133C27.7239 9.0679 28.2881 6.84209 28.3764 6.45621C28.4581 6.09846 28.3503 5.72384 28.0908 5.46434L26.5365 3.91016C26.2771 3.65066 25.9023 3.54278 25.5446 3.62453C25.252 3.69147 22.968 4.26391 22.1395 4.57228L19.74 3.57834C19.3888 2.81085 18.2158 0.840412 18.0023 0.500476C17.8073 0.189664 17.466 0.000976562 17.099 0.000976562H14.9009C14.5339 0.000976562 14.1927 0.189664 13.9975 0.500476C13.8358 0.758038 12.6269 2.77622 12.2599 3.57834L9.86042 4.57228C9.06698 4.27697 6.84117 3.71278 6.4553 3.62453C6.09755 3.54284 5.72293 3.65072 5.46343 3.91016L3.90918 5.4644C3.64968 5.7239 3.54181 6.09853 3.62356 6.45628C3.69049 6.7489 4.26293 9.0329 4.5713 9.86139L3.57737 12.2609C2.80987 12.612 0.839436 13.785 0.499499 13.9985C0.188687 14.1936 0 14.5348 0 14.9018V17.0999C0 17.4669 0.188687 17.8082 0.499499 18.0033C0.757061 18.165 2.77524 19.374 3.57737 19.7409L4.5713 22.1404C4.27599 22.9339 3.71181 25.1597 3.62356 25.5456C3.54187 25.9033 3.64968 26.2779 3.90918 26.5374L5.46343 28.0917C5.72293 28.3512 6.09768 28.4591 6.4553 28.3773C6.74792 28.3104 9.03192 27.7379 9.86042 27.4296L12.2599 28.4235C12.611 29.191 13.784 31.1614 13.9975 31.5014C14.1927 31.8122 14.5339 32.0009 14.9009 32.0009H17.099C17.466 32.0009 17.8073 31.8122 18.0024 31.5014C18.1641 31.2438 19.3731 29.2256 19.74 28.4235L22.1395 27.4296C22.933 27.7249 25.1588 28.289 25.5446 28.3773C25.9025 28.4592 26.2771 28.3512 26.5365 28.0917L28.0908 26.5374C28.3503 26.2779 28.4581 25.9033 28.3764 25.5456C28.3094 25.2529 27.737 22.9689 27.4286 22.1404L28.4226 19.7409C29.1901 19.3898 31.1605 18.2168 31.5004 18.0033C31.8113 17.8082 31.9999 17.4669 31.9999 17.0999V14.9018C31.9999 14.5348 31.8113 14.1936 31.5004 13.9984ZM16 22.9762C12.1538 22.9762 9.02467 19.8471 9.02467 16.0009C9.02467 12.1547 12.1538 9.02565 16 9.02565C19.8461 9.02565 22.9753 12.1548 22.9753 16.0009C22.9753 19.8471 19.8461 22.9762 16 22.9762Z" fill="white"/>
</svg>
