<svg width="100" height="100" viewBox="0 0 100 100" fill="none" xmlns="http://www.w3.org/2000/svg">
<mask id="path-1-outside-1" maskUnits="userSpaceOnUse" x="9.90918" y="11.7271" width="15" height="72" fill="black">
<rect fill="white" x="9.90918" y="11.7271" width="15" height="72"/>
<path d="M11.1463 79.8328L20.0791 77.6748V77.6494L11.1463 75.4787L11.1463 72.9653H12.7471L12.8064 73.3842C12.8459 73.6381 13.0765 73.7608 13.4981 73.7524L22.5495 73.435L22.6088 72.648H24.2886V75.7072H22.6878L22.6285 75.2503C22.6022 75.0218 22.4309 74.9117 22.1147 74.9202L15.1384 75.1614V75.1868L23.0238 77.1417V78.3476L15.2175 80.2771V80.3025L22.5495 80.5564L22.6088 79.7313H24.2886V82.7271H22.6878L22.6285 82.2701C22.6022 82.0754 22.4243 81.9696 22.095 81.9527L12.9052 81.61L12.8262 82.3843H11.1463L11.1463 79.8328Z"/>
<path d="M22.0752 71.5311L12.8657 69.4874L12.7471 70.2871H11.1463L11.1463 67.3801L22.5495 64.7905V64.7779L22.6088 64.0543H24.2886V67.3294H22.6878L22.6285 66.847C22.6022 66.7031 22.5495 66.6058 22.4704 66.555C22.3914 66.5042 22.2465 66.5 22.0357 66.5423L20.8104 66.8089V69.7793L22.5495 70.1601L22.6088 69.3985H24.2886V72.3308H22.6878L22.6285 71.9119C22.6022 71.7342 22.4177 71.6073 22.0752 71.5311ZM13.3598 68.2941L18.9922 69.4747V67.1136L13.3598 68.256V68.2941Z"/>
<path d="M19.6839 56.83H23.261C24.1042 57.617 24.5258 58.5945 24.5258 59.7623C24.5258 60.9302 23.9592 61.8441 22.8262 62.5042C21.6799 63.1559 19.9869 63.4817 17.7471 63.4817C16.759 63.4817 15.8697 63.4013 15.0791 63.2405C14.2886 63.0712 13.6365 62.8554 13.1226 62.5931C12.6088 62.3223 12.1806 62.0092 11.838 61.6537C11.2188 60.9767 10.9092 60.2108 10.9092 59.3561C10.9092 58.4929 11.1793 57.6889 11.7195 56.9442H15.0791L15.2175 58.239H13.676C13.4783 58.239 13.3334 58.2559 13.2412 58.2898C12.9909 58.3829 12.8657 58.7679 12.8657 59.445C12.8657 61.0783 14.4401 61.8949 17.589 61.8949C20.9092 61.8949 22.5693 61.1587 22.5693 59.6861C22.5693 59.1022 22.4112 58.6537 22.095 58.3406H19.1503V58.3533L19.091 59.3307H17.4112V56.1699H18.9922L19.0317 56.4619C19.0581 56.5973 19.1173 56.6946 19.2096 56.7538C19.2886 56.8046 19.4467 56.83 19.6839 56.83Z"/>
<path d="M24.2886 55.4511H22.6878L22.6285 54.9941C22.6022 54.7741 22.4177 54.6641 22.0752 54.6641H12.8855L12.8262 55.3876H11.1463L11.1463 53.1027L20.2175 49.5103V49.4849H12.8855L12.8262 50.3227H11.1463L11.1463 47.2253H12.7471L12.8064 47.6823C12.8328 47.8854 13.037 47.987 13.4191 47.987H24.2886V49.4722L15.0791 53.1408V53.1662H22.5495L22.6088 52.341L24.2886 52.341V55.4511Z"/>
<path d="M21.9764 45.7138H12.8855L12.8262 46.4373H11.1463L11.1463 43.3654H12.7471L12.8064 43.7843C12.8459 44.0297 13.0567 44.1524 13.4388 44.1524H22.5495L22.6088 43.4288H24.2886V46.5008H22.6878L22.6285 46.0819C22.6022 45.9549 22.5495 45.8619 22.4704 45.8026C22.3782 45.7434 22.2135 45.7138 21.9764 45.7138Z"/>
<path d="M22.0752 40.2472L13.1029 40.2472L13.1029 41.2373C13.1029 41.432 13.3071 41.5293 13.7155 41.5293H14.6444L14.506 42.8241H11.1463L11.1463 36.1851H14.506L14.6444 37.4799H13.7155C13.4915 37.4799 13.3334 37.501 13.2412 37.5433C13.149 37.5857 13.1029 37.6872 13.1029 37.848V38.7112H22.5495L22.6088 37.7084H24.2886V41.2881H22.6878L22.6285 40.6153C22.589 40.3699 22.4046 40.2472 22.0752 40.2472Z"/>
<path d="M13.4586 33.4465H20.0198C20.9421 33.4465 21.5943 33.3069 21.9764 33.0276C22.3453 32.7399 22.5297 32.3337 22.5297 31.809C22.5297 31.2758 22.3255 30.8654 21.9171 30.5777C21.5086 30.2815 20.9092 30.1334 20.1187 30.1334H12.8855L12.8262 30.8696H11.1463L11.1463 27.8611H12.7471L12.8064 28.2801C12.8459 28.5255 13.0436 28.6482 13.3993 28.6482H20.4546C21.7326 28.6482 22.7339 28.9359 23.4586 29.5114C24.1832 30.0868 24.5455 30.8823 24.5455 31.8979C24.5455 32.9134 24.1964 33.6835 23.4981 34.2082C22.7866 34.7244 21.6668 34.9825 20.1384 34.9825H12.8855L12.8262 35.7188H11.1463L11.1463 32.6468H12.7471L12.8064 33.0657C12.8328 33.2011 12.892 33.2984 12.9843 33.3577C13.0633 33.4169 13.2214 33.4465 13.4586 33.4465Z"/>
<path d="M24.2886 27.1988H22.6878L22.6285 26.7799C22.589 26.5345 22.4046 26.4117 22.0752 26.4117H12.8855L12.8262 27.1353H11.1463L11.1463 23.6571C11.1463 22.4131 11.6602 21.4441 12.6878 20.7502C13.7155 20.0478 15.2372 19.6966 17.2531 19.6966C18.5047 19.6966 19.5982 19.8024 20.5337 20.0139C21.4559 20.2255 22.1806 20.5132 22.7076 20.8771C23.7616 21.6049 24.2886 22.5104 24.2886 23.5937V27.1988ZM13.0633 24.8631H22.3914V23.5683C22.3914 22.8405 21.983 22.2735 21.1661 21.8673C20.3492 21.4611 19.1635 21.258 17.6088 21.258C14.5785 21.258 13.0633 22.0831 13.0633 23.7333V24.8631Z"/>
<path d="M24.2886 12.7271L24.2886 18.7567H22.6878L22.6285 18.3378C22.589 18.0924 22.4046 17.9697 22.0752 17.9697H12.8855L12.8262 18.6933H11.1463L11.1463 12.8794L14.427 12.8794L14.5653 14.1742H13.7748C13.5508 14.1742 13.3927 14.1953 13.3005 14.2376C13.2083 14.28 13.1621 14.3815 13.1621 14.5423V16.421H16.5416V13.4887L18.5574 13.4887V16.421H22.253V14.3773C22.253 14.2249 22.2069 14.1276 22.1147 14.0853C22.0093 14.043 21.8446 14.0218 21.6206 14.0218H20.6325L20.7708 12.7271L24.2886 12.7271Z"/>
</mask>
<path d="M11.1463 79.8328L20.0791 77.6748V77.6494L11.1463 75.4787L11.1463 72.9653H12.7471L12.8064 73.3842C12.8459 73.6381 13.0765 73.7608 13.4981 73.7524L22.5495 73.435L22.6088 72.648H24.2886V75.7072H22.6878L22.6285 75.2503C22.6022 75.0218 22.4309 74.9117 22.1147 74.9202L15.1384 75.1614V75.1868L23.0238 77.1417V78.3476L15.2175 80.2771V80.3025L22.5495 80.5564L22.6088 79.7313H24.2886V82.7271H22.6878L22.6285 82.2701C22.6022 82.0754 22.4243 81.9696 22.095 81.9527L12.9052 81.61L12.8262 82.3843H11.1463L11.1463 79.8328Z" fill="white"/>
<path d="M22.0752 71.5311L12.8657 69.4874L12.7471 70.2871H11.1463L11.1463 67.3801L22.5495 64.7905V64.7779L22.6088 64.0543H24.2886V67.3294H22.6878L22.6285 66.847C22.6022 66.7031 22.5495 66.6058 22.4704 66.555C22.3914 66.5042 22.2465 66.5 22.0357 66.5423L20.8104 66.8089V69.7793L22.5495 70.1601L22.6088 69.3985H24.2886V72.3308H22.6878L22.6285 71.9119C22.6022 71.7342 22.4177 71.6073 22.0752 71.5311ZM13.3598 68.2941L18.9922 69.4747V67.1136L13.3598 68.256V68.2941Z" fill="white"/>
<path d="M19.6839 56.83H23.261C24.1042 57.617 24.5258 58.5945 24.5258 59.7623C24.5258 60.9302 23.9592 61.8441 22.8262 62.5042C21.6799 63.1559 19.9869 63.4817 17.7471 63.4817C16.759 63.4817 15.8697 63.4013 15.0791 63.2405C14.2886 63.0712 13.6365 62.8554 13.1226 62.5931C12.6088 62.3223 12.1806 62.0092 11.838 61.6537C11.2188 60.9767 10.9092 60.2108 10.9092 59.3561C10.9092 58.4929 11.1793 57.6889 11.7195 56.9442H15.0791L15.2175 58.239H13.676C13.4783 58.239 13.3334 58.2559 13.2412 58.2898C12.9909 58.3829 12.8657 58.7679 12.8657 59.445C12.8657 61.0783 14.4401 61.8949 17.589 61.8949C20.9092 61.8949 22.5693 61.1587 22.5693 59.6861C22.5693 59.1022 22.4112 58.6537 22.095 58.3406H19.1503V58.3533L19.091 59.3307H17.4112V56.1699H18.9922L19.0317 56.4619C19.0581 56.5973 19.1173 56.6946 19.2096 56.7538C19.2886 56.8046 19.4467 56.83 19.6839 56.83Z" fill="white"/>
<path d="M24.2886 55.4511H22.6878L22.6285 54.9941C22.6022 54.7741 22.4177 54.6641 22.0752 54.6641H12.8855L12.8262 55.3876H11.1463L11.1463 53.1027L20.2175 49.5103V49.4849H12.8855L12.8262 50.3227H11.1463L11.1463 47.2253H12.7471L12.8064 47.6823C12.8328 47.8854 13.037 47.987 13.4191 47.987H24.2886V49.4722L15.0791 53.1408V53.1662H22.5495L22.6088 52.341L24.2886 52.341V55.4511Z" fill="white"/>
<path d="M21.9764 45.7138H12.8855L12.8262 46.4373H11.1463L11.1463 43.3654H12.7471L12.8064 43.7843C12.8459 44.0297 13.0567 44.1524 13.4388 44.1524H22.5495L22.6088 43.4288H24.2886V46.5008H22.6878L22.6285 46.0819C22.6022 45.9549 22.5495 45.8619 22.4704 45.8026C22.3782 45.7434 22.2135 45.7138 21.9764 45.7138Z" fill="white"/>
<path d="M22.0752 40.2472L13.1029 40.2472L13.1029 41.2373C13.1029 41.432 13.3071 41.5293 13.7155 41.5293H14.6444L14.506 42.8241H11.1463L11.1463 36.1851H14.506L14.6444 37.4799H13.7155C13.4915 37.4799 13.3334 37.501 13.2412 37.5433C13.149 37.5857 13.1029 37.6872 13.1029 37.848V38.7112H22.5495L22.6088 37.7084H24.2886V41.2881H22.6878L22.6285 40.6153C22.589 40.3699 22.4046 40.2472 22.0752 40.2472Z" fill="white"/>
<path d="M13.4586 33.4465H20.0198C20.9421 33.4465 21.5943 33.3069 21.9764 33.0276C22.3453 32.7399 22.5297 32.3337 22.5297 31.809C22.5297 31.2758 22.3255 30.8654 21.9171 30.5777C21.5086 30.2815 20.9092 30.1334 20.1187 30.1334H12.8855L12.8262 30.8696H11.1463L11.1463 27.8611H12.7471L12.8064 28.2801C12.8459 28.5255 13.0436 28.6482 13.3993 28.6482H20.4546C21.7326 28.6482 22.7339 28.9359 23.4586 29.5114C24.1832 30.0868 24.5455 30.8823 24.5455 31.8979C24.5455 32.9134 24.1964 33.6835 23.4981 34.2082C22.7866 34.7244 21.6668 34.9825 20.1384 34.9825H12.8855L12.8262 35.7188H11.1463L11.1463 32.6468H12.7471L12.8064 33.0657C12.8328 33.2011 12.892 33.2984 12.9843 33.3577C13.0633 33.4169 13.2214 33.4465 13.4586 33.4465Z" fill="white"/>
<path d="M24.2886 27.1988H22.6878L22.6285 26.7799C22.589 26.5345 22.4046 26.4117 22.0752 26.4117H12.8855L12.8262 27.1353H11.1463L11.1463 23.6571C11.1463 22.4131 11.6602 21.4441 12.6878 20.7502C13.7155 20.0478 15.2372 19.6966 17.2531 19.6966C18.5047 19.6966 19.5982 19.8024 20.5337 20.0139C21.4559 20.2255 22.1806 20.5132 22.7076 20.8771C23.7616 21.6049 24.2886 22.5104 24.2886 23.5937V27.1988ZM13.0633 24.8631H22.3914V23.5683C22.3914 22.8405 21.983 22.2735 21.1661 21.8673C20.3492 21.4611 19.1635 21.258 17.6088 21.258C14.5785 21.258 13.0633 22.0831 13.0633 23.7333V24.8631Z" fill="white"/>
<path d="M24.2886 12.7271L24.2886 18.7567H22.6878L22.6285 18.3378C22.589 18.0924 22.4046 17.9697 22.0752 17.9697H12.8855L12.8262 18.6933H11.1463L11.1463 12.8794L14.427 12.8794L14.5653 14.1742H13.7748C13.5508 14.1742 13.3927 14.1953 13.3005 14.2376C13.2083 14.28 13.1621 14.3815 13.1621 14.5423V16.421H16.5416V13.4887L18.5574 13.4887V16.421H22.253V14.3773C22.253 14.2249 22.2069 14.1276 22.1147 14.0853C22.0093 14.043 21.8446 14.0218 21.6206 14.0218H20.6325L20.7708 12.7271L24.2886 12.7271Z" fill="white"/>
<path d="M11.1463 79.8328L20.0791 77.6748V77.6494L11.1463 75.4787L11.1463 72.9653H12.7471L12.8064 73.3842C12.8459 73.6381 13.0765 73.7608 13.4981 73.7524L22.5495 73.435L22.6088 72.648H24.2886V75.7072H22.6878L22.6285 75.2503C22.6022 75.0218 22.4309 74.9117 22.1147 74.9202L15.1384 75.1614V75.1868L23.0238 77.1417V78.3476L15.2175 80.2771V80.3025L22.5495 80.5564L22.6088 79.7313H24.2886V82.7271H22.6878L22.6285 82.2701C22.6022 82.0754 22.4243 81.9696 22.095 81.9527L12.9052 81.61L12.8262 82.3843H11.1463L11.1463 79.8328Z" stroke="#1D48B7" stroke-width="0.5" mask="url(#path-1-outside-1)"/>
<path d="M22.0752 71.5311L12.8657 69.4874L12.7471 70.2871H11.1463L11.1463 67.3801L22.5495 64.7905V64.7779L22.6088 64.0543H24.2886V67.3294H22.6878L22.6285 66.847C22.6022 66.7031 22.5495 66.6058 22.4704 66.555C22.3914 66.5042 22.2465 66.5 22.0357 66.5423L20.8104 66.8089V69.7793L22.5495 70.1601L22.6088 69.3985H24.2886V72.3308H22.6878L22.6285 71.9119C22.6022 71.7342 22.4177 71.6073 22.0752 71.5311ZM13.3598 68.2941L18.9922 69.4747V67.1136L13.3598 68.256V68.2941Z" stroke="#1D48B7" stroke-width="0.5" mask="url(#path-1-outside-1)"/>
<path d="M19.6839 56.83H23.261C24.1042 57.617 24.5258 58.5945 24.5258 59.7623C24.5258 60.9302 23.9592 61.8441 22.8262 62.5042C21.6799 63.1559 19.9869 63.4817 17.7471 63.4817C16.759 63.4817 15.8697 63.4013 15.0791 63.2405C14.2886 63.0712 13.6365 62.8554 13.1226 62.5931C12.6088 62.3223 12.1806 62.0092 11.838 61.6537C11.2188 60.9767 10.9092 60.2108 10.9092 59.3561C10.9092 58.4929 11.1793 57.6889 11.7195 56.9442H15.0791L15.2175 58.239H13.676C13.4783 58.239 13.3334 58.2559 13.2412 58.2898C12.9909 58.3829 12.8657 58.7679 12.8657 59.445C12.8657 61.0783 14.4401 61.8949 17.589 61.8949C20.9092 61.8949 22.5693 61.1587 22.5693 59.6861C22.5693 59.1022 22.4112 58.6537 22.095 58.3406H19.1503V58.3533L19.091 59.3307H17.4112V56.1699H18.9922L19.0317 56.4619C19.0581 56.5973 19.1173 56.6946 19.2096 56.7538C19.2886 56.8046 19.4467 56.83 19.6839 56.83Z" stroke="#1D48B7" stroke-width="0.5" mask="url(#path-1-outside-1)"/>
<path d="M24.2886 55.4511H22.6878L22.6285 54.9941C22.6022 54.7741 22.4177 54.6641 22.0752 54.6641H12.8855L12.8262 55.3876H11.1463L11.1463 53.1027L20.2175 49.5103V49.4849H12.8855L12.8262 50.3227H11.1463L11.1463 47.2253H12.7471L12.8064 47.6823C12.8328 47.8854 13.037 47.987 13.4191 47.987H24.2886V49.4722L15.0791 53.1408V53.1662H22.5495L22.6088 52.341L24.2886 52.341V55.4511Z" stroke="#1D48B7" stroke-width="0.5" mask="url(#path-1-outside-1)"/>
<path d="M21.9764 45.7138H12.8855L12.8262 46.4373H11.1463L11.1463 43.3654H12.7471L12.8064 43.7843C12.8459 44.0297 13.0567 44.1524 13.4388 44.1524H22.5495L22.6088 43.4288H24.2886V46.5008H22.6878L22.6285 46.0819C22.6022 45.9549 22.5495 45.8619 22.4704 45.8026C22.3782 45.7434 22.2135 45.7138 21.9764 45.7138Z" stroke="#1D48B7" stroke-width="0.5" mask="url(#path-1-outside-1)"/>
<path d="M22.0752 40.2472L13.1029 40.2472L13.1029 41.2373C13.1029 41.432 13.3071 41.5293 13.7155 41.5293H14.6444L14.506 42.8241H11.1463L11.1463 36.1851H14.506L14.6444 37.4799H13.7155C13.4915 37.4799 13.3334 37.501 13.2412 37.5433C13.149 37.5857 13.1029 37.6872 13.1029 37.848V38.7112H22.5495L22.6088 37.7084H24.2886V41.2881H22.6878L22.6285 40.6153C22.589 40.3699 22.4046 40.2472 22.0752 40.2472Z" stroke="#1D48B7" stroke-width="0.5" mask="url(#path-1-outside-1)"/>
<path d="M13.4586 33.4465H20.0198C20.9421 33.4465 21.5943 33.3069 21.9764 33.0276C22.3453 32.7399 22.5297 32.3337 22.5297 31.809C22.5297 31.2758 22.3255 30.8654 21.9171 30.5777C21.5086 30.2815 20.9092 30.1334 20.1187 30.1334H12.8855L12.8262 30.8696H11.1463L11.1463 27.8611H12.7471L12.8064 28.2801C12.8459 28.5255 13.0436 28.6482 13.3993 28.6482H20.4546C21.7326 28.6482 22.7339 28.9359 23.4586 29.5114C24.1832 30.0868 24.5455 30.8823 24.5455 31.8979C24.5455 32.9134 24.1964 33.6835 23.4981 34.2082C22.7866 34.7244 21.6668 34.9825 20.1384 34.9825H12.8855L12.8262 35.7188H11.1463L11.1463 32.6468H12.7471L12.8064 33.0657C12.8328 33.2011 12.892 33.2984 12.9843 33.3577C13.0633 33.4169 13.2214 33.4465 13.4586 33.4465Z" stroke="#1D48B7" stroke-width="0.5" mask="url(#path-1-outside-1)"/>
<path d="M24.2886 27.1988H22.6878L22.6285 26.7799C22.589 26.5345 22.4046 26.4117 22.0752 26.4117H12.8855L12.8262 27.1353H11.1463L11.1463 23.6571C11.1463 22.4131 11.6602 21.4441 12.6878 20.7502C13.7155 20.0478 15.2372 19.6966 17.2531 19.6966C18.5047 19.6966 19.5982 19.8024 20.5337 20.0139C21.4559 20.2255 22.1806 20.5132 22.7076 20.8771C23.7616 21.6049 24.2886 22.5104 24.2886 23.5937V27.1988ZM13.0633 24.8631H22.3914V23.5683C22.3914 22.8405 21.983 22.2735 21.1661 21.8673C20.3492 21.4611 19.1635 21.258 17.6088 21.258C14.5785 21.258 13.0633 22.0831 13.0633 23.7333V24.8631Z" stroke="#1D48B7" stroke-width="0.5" mask="url(#path-1-outside-1)"/>
<path d="M24.2886 12.7271L24.2886 18.7567H22.6878L22.6285 18.3378C22.589 18.0924 22.4046 17.9697 22.0752 17.9697H12.8855L12.8262 18.6933H11.1463L11.1463 12.8794L14.427 12.8794L14.5653 14.1742H13.7748C13.5508 14.1742 13.3927 14.1953 13.3005 14.2376C13.2083 14.28 13.1621 14.3815 13.1621 14.5423V16.421H16.5416V13.4887L18.5574 13.4887V16.421H22.253V14.3773C22.253 14.2249 22.2069 14.1276 22.1147 14.0853C22.0093 14.043 21.8446 14.0218 21.6206 14.0218H20.6325L20.7708 12.7271L24.2886 12.7271Z" stroke="#1D48B7" stroke-width="0.5" mask="url(#path-1-outside-1)"/>
<mask id="path-2-outside-2" maskUnits="userSpaceOnUse" x="24.3633" y="11.7271" width="67" height="73" fill="black">
<rect fill="white" x="24.3633" y="11.7271" width="67" height="73"/>
<path fill-rule="evenodd" clip-rule="evenodd" d="M26.3633 30.1594L40.2617 81.9089H56.6191L70.6328 29.9121V81.9089H88.6992V13.7271H59.6953L48.5137 55.2129L37.2832 13.7271H26.3633V30.1594Z"/>
</mask>
<path fill-rule="evenodd" clip-rule="evenodd" d="M26.3633 30.1594L40.2617 81.9089H56.6191L70.6328 29.9121V81.9089H88.6992V13.7271H59.6953L48.5137 55.2129L37.2832 13.7271H26.3633V30.1594Z" fill="white"/>
<path d="M40.2617 81.9089L38.3302 82.4276L38.728 83.9089H40.2617V81.9089ZM26.3633 30.1594H24.3633V30.4233L24.4317 30.6781L26.3633 30.1594ZM56.6191 81.9089V83.9089H58.1515L58.5502 82.4293L56.6191 81.9089ZM70.6328 29.9121H72.6328L68.7017 29.3916L70.6328 29.9121ZM70.6328 81.9089H68.6328V83.9089H70.6328V81.9089ZM88.6992 81.9089V83.9089H90.6992V81.9089H88.6992ZM88.6992 13.7271H90.6992V11.7271H88.6992V13.7271ZM59.6953 13.7271V11.7271H58.163L57.7642 13.2066L59.6953 13.7271ZM48.5137 55.2129L46.5831 55.7355L48.5179 62.8824L50.4448 55.7333L48.5137 55.2129ZM37.2832 13.7271L39.2137 13.2044L38.8138 11.7271H37.2832V13.7271ZM26.3633 13.7271V11.7271H24.3633V13.7271H26.3633ZM42.1933 81.3901L28.2948 29.6406L24.4317 30.6781L38.3302 82.4276L42.1933 81.3901ZM56.6191 79.9089H40.2617V83.9089H56.6191V79.9089ZM68.7017 29.3916L54.688 81.3884L58.5502 82.4293L72.5639 30.4325L68.7017 29.3916ZM72.6328 81.9089V29.9121H68.6328V81.9089H72.6328ZM88.6992 79.9089H70.6328V83.9089H88.6992V79.9089ZM86.6992 13.7271V81.9089H90.6992V13.7271H86.6992ZM59.6953 15.7271H88.6992V11.7271H59.6953V15.7271ZM50.4448 55.7333L61.6264 14.2475L57.7642 13.2066L46.5826 54.6924L50.4448 55.7333ZM35.3527 14.2497L46.5831 55.7355L50.4442 54.6903L39.2137 13.2044L35.3527 14.2497ZM26.3633 15.7271H37.2832V11.7271H26.3633V15.7271ZM24.3633 13.7271V30.1594H28.3633V13.7271H24.3633Z" fill="white" mask="url(#path-2-outside-2)"/>
</svg>
