<svg width="16" height="16" viewBox="0 0 16 16" fill="none" xmlns="http://www.w3.org/2000/svg">
<path d="M12.6056 6.89962C12.2993 6.59402 11.8843 6.42239 11.4517 6.42239C11.019 6.42239 10.604 6.59402 10.2977 6.89962L9.55749 7.63984C9.5284 7.66918 9.51212 7.70886 9.51221 7.75018C9.5123 7.7915 9.52875 7.8311 9.55797 7.86032C9.58719 7.88954 9.62679 7.906 9.66811 7.90609C9.70944 7.90618 9.74911 7.8899 9.77846 7.8608L10.5187 7.12059C10.7663 6.8735 11.1018 6.73474 11.4517 6.73474C11.8015 6.73474 12.137 6.8735 12.3846 7.12059L12.6365 7.37246C12.651 7.38707 12.6682 7.39868 12.6872 7.40662C12.7062 7.41456 12.7266 7.41866 12.7471 7.41871C12.7677 7.41875 12.7881 7.41474 12.8071 7.40688C12.8261 7.39903 12.8434 7.3875 12.858 7.37295C12.8725 7.3584 12.8841 7.34112 12.8919 7.3221C12.8998 7.30308 12.9038 7.28269 12.9037 7.26212C12.9037 7.24154 12.8996 7.22118 12.8916 7.20219C12.8837 7.18321 12.8721 7.16598 12.8575 7.15149L12.6056 6.89962Z" fill="#7C7C7C"/>
<path d="M8.65179 3.38788L8.90366 3.63976C9.15075 3.88739 9.28951 4.22293 9.28951 4.57274C9.28951 4.92256 9.15075 5.2581 8.90366 5.50573L8.16345 6.24595C8.13436 6.27529 8.11807 6.31497 8.11816 6.35629C8.11825 6.39761 8.13471 6.43721 8.16393 6.46643C8.19315 6.49565 8.23275 6.51211 8.27407 6.5122C8.31539 6.51229 8.35507 6.49601 8.38441 6.46692L9.12463 5.7267C9.43022 5.4204 9.60184 5.0054 9.60184 4.57273C9.60184 4.14006 9.43022 3.72506 9.12463 3.41876L8.87276 3.16692C8.85827 3.1523 8.84104 3.14069 8.82206 3.13276C8.80307 3.12482 8.78271 3.12071 8.76213 3.12067C8.74155 3.12062 8.72117 3.12464 8.70215 3.13249C8.68313 3.14035 8.66585 3.15188 8.6513 3.16643C8.63675 3.18098 8.62522 3.19826 8.61737 3.21728C8.60951 3.2363 8.6055 3.25668 8.60554 3.27726C8.60559 3.29784 8.60969 3.3182 8.61763 3.33718C8.62557 3.35617 8.63718 3.3734 8.65179 3.38788Z" fill="#7C7C7C"/>
<path d="M8.62389 7.42469C8.65319 7.45399 8.69293 7.47046 8.73437 7.47046C8.77581 7.47046 8.81555 7.45399 8.84486 7.42469L11.2522 5.01738C11.2815 4.98807 11.298 4.94833 11.298 4.90688C11.298 4.86544 11.2815 4.82569 11.2522 4.79638C11.2229 4.76707 11.1831 4.75061 11.1417 4.75061C11.1003 4.75061 11.0605 4.76707 11.0312 4.79638L8.62389 7.20372C8.59459 7.23303 8.57813 7.27277 8.57813 7.31421C8.57812 7.35565 8.59459 7.39539 8.62389 7.42469Z" fill="#7C7C7C"/>
<path d="M12.1989 8.68676C12.2081 8.65923 12.2094 8.62969 12.2028 8.60144C12.1961 8.5732 12.1817 8.54736 12.1612 8.52684C12.1407 8.50632 12.1148 8.49192 12.0866 8.48526C12.0583 8.47859 12.0288 8.47992 12.0013 8.4891L11.7099 8.58623C11.5273 8.64669 11.33 8.64669 11.1474 8.58623L10.856 8.4891C10.8285 8.47993 10.799 8.4786 10.7707 8.48527C10.7425 8.49194 10.7167 8.50634 10.6961 8.52686C10.6756 8.54738 10.6612 8.57321 10.6546 8.60145C10.6479 8.62969 10.6492 8.65923 10.6584 8.68676L10.7555 8.9781C10.816 9.16073 10.816 9.35798 10.7555 9.5406L10.6584 9.83198C10.6492 9.8595 10.6479 9.88904 10.6546 9.91727C10.6613 9.94551 10.6757 9.97133 10.6962 9.99185C10.7167 10.0124 10.7425 10.0268 10.7707 10.0334C10.799 10.0401 10.8285 10.0388 10.856 10.0296L11.1474 9.93248C11.33 9.872 11.5273 9.872 11.7099 9.93248L12.0013 10.0296C12.0288 10.0388 12.0583 10.0401 12.0866 10.0334C12.1148 10.0268 12.1406 10.0124 12.1612 9.99187C12.1817 9.97135 12.1961 9.94553 12.2027 9.91729C12.2094 9.88905 12.2081 9.85951 12.1989 9.83198L12.1018 9.5406C12.0413 9.35798 12.0413 9.16073 12.1018 8.9781L12.1989 8.68676Z" fill="#7C7C7C"/>
<path d="M5.70674 4.87988C5.69757 4.90741 5.69624 4.93695 5.70291 4.96519C5.70958 4.99343 5.72398 5.01925 5.7445 5.03977C5.76502 5.06028 5.79085 5.07468 5.81909 5.08135C5.84733 5.08801 5.87687 5.08668 5.9044 5.0775L6.19578 4.98038C6.3784 4.9199 6.57565 4.9199 6.75828 4.98038L7.04968 5.07747C7.07721 5.08664 7.10674 5.08797 7.13498 5.0813C7.16321 5.07463 7.18904 5.06023 7.20955 5.03972C7.23007 5.0192 7.24446 4.99338 7.25113 4.96514C7.2578 4.93691 7.25648 4.90737 7.24731 4.87985L7.15018 4.58847C7.08972 4.40584 7.08972 4.2086 7.15018 4.02597L7.24731 3.7346C7.25648 3.70707 7.2578 3.67754 7.25113 3.6493C7.24446 3.62106 7.23007 3.59524 7.20955 3.57473C7.18904 3.55421 7.16321 3.53981 7.13498 3.53314C7.10674 3.52648 7.07721 3.5278 7.04968 3.53697L6.75828 3.6341C6.57565 3.69458 6.3784 3.69458 6.19578 3.6341L5.9044 3.537C5.87687 3.52782 5.84733 3.52649 5.81909 3.53316C5.79085 3.53982 5.76502 3.55422 5.7445 3.57474C5.72398 3.59525 5.70958 3.62108 5.70291 3.64932C5.69624 3.67756 5.69757 3.7071 5.70674 3.73463L5.8039 4.026C5.86437 4.20863 5.86437 4.40588 5.8039 4.5885L5.70674 4.87988Z" fill="#7C7C7C"/>
<path d="M11.7016 4.12461C11.6924 4.15214 11.6911 4.18169 11.6977 4.20993C11.7044 4.23818 11.7188 4.26401 11.7393 4.28453C11.7598 4.30505 11.7857 4.31945 11.8139 4.32612C11.8422 4.33278 11.8717 4.33145 11.8992 4.32227L12.1906 4.22514C12.3732 4.16468 12.5705 4.16468 12.7531 4.22514L13.0445 4.32227C13.072 4.33145 13.1015 4.33278 13.1298 4.32612C13.158 4.31945 13.1839 4.30505 13.2044 4.28453C13.2249 4.26401 13.2393 4.23818 13.246 4.20993C13.2526 4.18169 13.2513 4.15214 13.2421 4.12461L13.145 3.83324C13.0845 3.65062 13.0845 3.45336 13.145 3.27074L13.2421 2.97936C13.2513 2.95183 13.2526 2.92229 13.246 2.89404C13.2393 2.8658 13.2249 2.83997 13.2044 2.81945C13.1839 2.79893 13.158 2.78452 13.1298 2.77786C13.1015 2.77119 13.072 2.77253 13.0445 2.78171L12.7529 2.87896C12.5703 2.93944 12.373 2.93944 12.1904 2.87896L11.899 2.78183C11.8715 2.77265 11.842 2.77132 11.8137 2.77798C11.7855 2.78465 11.7596 2.79905 11.7391 2.81957C11.7186 2.84009 11.7042 2.86592 11.6975 2.89417C11.6909 2.92241 11.6922 2.95196 11.7014 2.97949L11.7985 3.27086C11.859 3.45348 11.859 3.65074 11.7985 3.83336L11.7016 4.12461Z" fill="#7C7C7C"/>
<path d="M15.0423 5.42705C15.013 5.39775 14.9733 5.38129 14.9318 5.38129C14.8904 5.38129 14.8506 5.39775 14.8213 5.42705L14.5057 5.74268L14.1901 5.42705C14.1607 5.39796 14.1211 5.38168 14.0797 5.38177C14.0384 5.38186 13.9988 5.39831 13.9696 5.42753C13.9404 5.45675 13.9239 5.49635 13.9238 5.53768C13.9237 5.579 13.94 5.61867 13.9691 5.64802L14.2847 5.96364L13.9691 6.27927C13.9398 6.30857 13.9233 6.34831 13.9233 6.38976C13.9233 6.4312 13.9398 6.47095 13.9691 6.50025C13.9984 6.52956 14.0381 6.54602 14.0796 6.54603C14.121 6.54603 14.1608 6.52957 14.1901 6.50027L14.5057 6.18464L14.8213 6.50027C14.8506 6.52957 14.8904 6.54603 14.9318 6.54603C14.9733 6.54602 15.013 6.52956 15.0423 6.50025C15.0716 6.47095 15.0881 6.4312 15.0881 6.38976C15.0881 6.34831 15.0716 6.30857 15.0423 6.27927L14.7267 5.96364L15.0423 5.64802C15.0716 5.61872 15.0881 5.57897 15.0881 5.53753C15.0881 5.4961 15.0716 5.45635 15.0423 5.42705Z" fill="#7C7C7C"/>
<path d="M8.0407 2.11376C8.16195 2.11376 8.28047 2.07782 8.38128 2.01046C8.48209 1.94311 8.56067 1.84737 8.60707 1.73536C8.65347 1.62334 8.66561 1.50009 8.64196 1.38117C8.61831 1.26226 8.55992 1.15303 8.47419 1.0673C8.38846 0.981569 8.27923 0.923185 8.16032 0.899534C8.0414 0.875882 7.91815 0.888024 7.80614 0.934424C7.69412 0.980825 7.59839 1.0594 7.53103 1.16021C7.46368 1.26102 7.42773 1.37955 7.42773 1.50079C7.42792 1.6633 7.49257 1.8191 7.60748 1.93401C7.72239 2.04892 7.87819 2.11357 8.0407 2.11376Z" fill="#7C7C7C"/>
<path d="M13.5427 8.6347C13.4214 8.6347 13.3029 8.67065 13.2021 8.73801C13.1013 8.80536 13.0227 8.9011 12.9763 9.0131C12.93 9.12511 12.9178 9.24835 12.9415 9.36726C12.9651 9.48616 13.0235 9.59538 13.1092 9.68111C13.1949 9.76683 13.3042 9.82521 13.4231 9.84886C13.542 9.87252 13.6652 9.86038 13.7772 9.81398C13.8892 9.76759 13.985 9.68902 14.0523 9.58822C14.1197 9.48742 14.1556 9.36891 14.1556 9.24767C14.1554 9.08516 14.0908 8.92936 13.9759 8.81445C13.861 8.69954 13.7052 8.63489 13.5427 8.6347Z" fill="#7C7C7C"/>
<path d="M8.92337 12.497L10.2414 12.0668C10.0334 11.9492 9.75796 11.7602 9.38759 11.4694C8.66365 10.9009 7.76259 10.0855 6.85053 9.17343C5.93846 8.26134 5.12303 7.36031 4.55459 6.63637C4.26396 6.26618 4.07468 5.99059 3.95715 5.78268L3.5249 7.10718C4.20721 8.19372 5.00965 9.19999 5.91709 10.107C6.82529 11.0151 7.83387 11.817 8.92337 12.497ZM6.32962 9.54353C6.34423 9.52911 6.36153 9.51772 6.38055 9.50999C6.39956 9.50226 6.41991 9.49836 6.44043 9.4985C6.46095 9.49864 6.48125 9.50282 6.50015 9.5108C6.51906 9.51879 6.53621 9.53042 6.55062 9.54503C6.61427 9.60961 6.6786 9.67439 6.74362 9.73937C6.77271 9.76872 6.78899 9.80839 6.7889 9.84972C6.78881 9.89104 6.77236 9.93064 6.74314 9.95986C6.71392 9.98908 6.67432 10.0055 6.63299 10.0056C6.59167 10.0057 6.552 9.98943 6.52265 9.96034C6.45715 9.89484 6.39231 9.82956 6.32812 9.7645C6.31371 9.74989 6.30232 9.73259 6.29459 9.71358C6.28687 9.69457 6.28297 9.67422 6.28311 9.6537C6.28325 9.63318 6.28742 9.61289 6.29541 9.59399C6.30339 9.57509 6.31501 9.55794 6.32962 9.54353ZM4.5169 7.78234C4.49045 7.75043 4.47775 7.70932 4.48161 7.66805C4.48546 7.62678 4.50556 7.58873 4.53746 7.56228C4.56937 7.53582 4.61049 7.52313 4.65175 7.52698C4.69302 7.53084 4.73107 7.55093 4.75753 7.58284C5.14043 8.04456 5.61328 8.57153 6.125 9.10675C6.15363 9.1367 6.16919 9.17681 6.16826 9.21824C6.16732 9.25967 6.14997 9.29903 6.12001 9.32767C6.09005 9.3563 6.04995 9.37187 6.00852 9.37093C5.96709 9.37 5.92772 9.35264 5.89909 9.32268C5.38231 8.78225 4.90437 8.24959 4.5169 7.78234Z" fill="#7C7C7C"/>
<path d="M7.07152 8.95246C7.91415 9.79511 8.75843 10.5645 9.44883 11.1189C10.1669 11.6955 10.4898 11.8582 10.6198 11.9038C10.5741 11.7739 10.4115 11.451 9.83483 10.7329C9.28046 10.0425 8.51102 9.19824 7.66837 8.35558C6.82571 7.51292 5.98143 6.74349 5.29105 6.18911C4.57299 5.61246 4.25009 5.4498 4.12012 5.40417C4.16571 5.53414 4.3284 5.85708 4.90502 6.57511C5.45943 7.26561 6.22884 8.1098 7.07152 8.95246Z" fill="#7C7C7C"/>
<path d="M3.39896 7.49298L3.16064 8.22307H3.90049C3.69411 7.93911 3.52643 7.69061 3.39896 7.49298Z" fill="#7C7C7C"/>
<path d="M4.13275 8.53558H3.05841L2.63525 9.83196H5.21963C4.79513 9.37205 4.43235 8.92921 4.13275 8.53558Z" fill="#7C7C7C"/>
<path d="M1.48284 13.3622L0.911621 15.1122L6.27265 13.3622H1.48284Z" fill="#7C7C7C"/>
<path d="M5.69613 10.3281C5.63482 10.2668 5.57495 10.2057 5.5157 10.1446H2.53351L2.11035 11.4408H6.92285C6.53338 11.1198 6.11657 10.7484 5.69613 10.3281Z" fill="#7C7C7C"/>
<path d="M8.53671 12.6232C8.22999 12.4263 7.80299 12.1349 7.31284 11.7533H2.00812L1.58496 13.0497H7.23009L8.53671 12.6232Z" fill="#7C7C7C"/>
</svg>
