<svg width="24" height="24" viewBox="0 0 24 24" fill="none" xmlns="http://www.w3.org/2000/svg">
<path d="M18 0.749999L18 16.5L17.25 16.5C16.8375 16.5 16.5 16.8375 16.5 17.25L16.5 18.75C16.5 19.1625 16.8375 19.5 17.25 19.5L18 19.5L18 23.25C18 23.6625 18.3375 24 18.75 24L20.25 24C20.6625 24 21 23.6625 21 23.25L21 19.5L21.75 19.5C22.1625 19.5 22.5 19.1625 22.5 18.75L22.5 17.25C22.5 16.8375 22.1625 16.5 21.75 16.5L21 16.5L21 0.749999C21 0.337499 20.6625 -8.37619e-07 20.25 -8.19589e-07L18.75 -7.54021e-07C18.3375 -7.3599e-07 18 0.337499 18 0.749999ZM10.5 0.75L10.5 4.5L9.75 4.5C9.3375 4.5 9 4.8375 9 5.25L9 6.75C9 7.1625 9.3375 7.5 9.75 7.5L10.5 7.5L10.5 23.25C10.5 23.6625 10.8375 24 11.25 24L12.75 24C13.1625 24 13.5 23.6625 13.5 23.25L13.5 7.5L14.25 7.5C14.6625 7.5 15 7.1625 15 6.75L15 5.25C15 4.8375 14.6625 4.5 14.25 4.5L13.5 4.5L13.5 0.749999C13.5 0.337499 13.1625 -5.09784e-07 12.75 -4.91753e-07L11.25 -4.26186e-07C10.8375 -4.08155e-07 10.5 0.337499 10.5 0.75ZM3 0.75L3 10.5L2.25 10.5C1.8375 10.5 1.5 10.8375 1.5 11.25L1.5 12.75C1.5 13.1625 1.8375 13.5 2.25 13.5L3 13.5L3 23.25C3 23.6625 3.3375 24 3.75 24L5.25 24C5.6625 24 6 23.6625 6 23.25L6 13.5L6.75 13.5C7.1625 13.5 7.5 13.1625 7.5 12.75L7.5 11.25C7.5 10.8375 7.1625 10.5 6.75 10.5L6 10.5L6 0.75C6 0.337499 5.6625 -1.81949e-07 5.25 -1.63918e-07L3.75 -9.83506e-08C3.3375 -8.03197e-08 3 0.3375 3 0.75Z" fill="#242424"/>
</svg>
