<svg width="16" height="16" viewBox="0 0 16 16" fill="none" xmlns="http://www.w3.org/2000/svg">
<path d="M13.69 8.54126H12.4526C12.5788 8.88657 12.6477 9.25923 12.6477 9.64764V14.3242C12.6477 14.4861 12.6195 14.6416 12.5682 14.7861H14.6139C15.378 14.7861 15.9997 14.1645 15.9997 13.4003V10.8509C15.9997 9.57739 14.9636 8.54126 13.69 8.54126Z" fill="#7C7C7C"/>
<path d="M3.35204 9.64767C3.35204 9.25923 3.42094 8.8866 3.54707 8.54129H2.30969C1.03613 8.54129 0 9.57742 0 10.851V13.4004C0 14.1645 0.621657 14.7862 1.38582 14.7862H3.43151C3.38023 14.6416 3.35204 14.4862 3.35204 14.3242V9.64767Z" fill="#7C7C7C"/>
<path d="M9.41439 7.33798H6.58557C5.31201 7.33798 4.27588 8.37411 4.27588 9.64767V14.3242C4.27588 14.5793 4.48269 14.7862 4.73782 14.7862H11.2621C11.5173 14.7862 11.7241 14.5794 11.7241 14.3242V9.64767C11.7241 8.37411 10.688 7.33798 9.41439 7.33798Z" fill="#7C7C7C"/>
<path d="M7.99986 1.21375C6.46823 1.21375 5.22217 2.45981 5.22217 3.99147C5.22217 5.03038 5.79558 5.93772 6.64239 6.4141C7.04405 6.64004 7.50711 6.76916 7.99986 6.76916C8.49261 6.76916 8.95567 6.64004 9.35733 6.4141C10.2042 5.93772 10.7776 5.03035 10.7776 3.99147C10.7776 2.45984 9.53149 1.21375 7.99986 1.21375Z" fill="#7C7C7C"/>
<path d="M3.12227 3.80276C1.9768 3.80276 1.04492 4.73464 1.04492 5.88011C1.04492 7.02558 1.9768 7.95746 3.12227 7.95746C3.41283 7.95746 3.68952 7.89727 3.94086 7.78909C4.37543 7.60199 4.73374 7.2708 4.95546 6.85596C5.11109 6.5648 5.19962 6.23264 5.19962 5.88011C5.19962 4.73467 4.26774 3.80276 3.12227 3.80276Z" fill="#7C7C7C"/>
<path d="M12.8776 3.80276C11.7322 3.80276 10.8003 4.73464 10.8003 5.88011C10.8003 6.23268 10.8888 6.56483 11.0445 6.85596C11.2662 7.27083 11.6245 7.60202 12.059 7.78909C12.3104 7.89727 12.5871 7.95746 12.8776 7.95746C14.0231 7.95746 14.955 7.02558 14.955 5.88011C14.955 4.73464 14.0231 3.80276 12.8776 3.80276Z" fill="#7C7C7C"/>
</svg>
