<svg width="80" height="78" viewBox="0 0 80 78" fill="none" xmlns="http://www.w3.org/2000/svg">
<mask id="path-1-outside-1" maskUnits="userSpaceOnUse" x="7.72754" y="9.34937" width="13" height="57" fill="black">
<rect fill="white" x="7.72754" y="9.34937" width="13" height="57"/>
<path d="M8.91726 62.2597L16.0635 60.5904V60.5707L8.91726 58.8916L8.91726 56.9473H10.1979L10.2453 57.2713C10.2769 57.4677 10.4614 57.5626 10.7987 57.5561L18.0398 57.3106L18.0872 56.7018H19.4311V59.0683H18.1505L18.103 58.7148C18.082 58.5381 17.9449 58.453 17.692 58.4595L12.1109 58.6461V58.6657L18.4192 60.1779V61.1108L12.1742 62.6034V62.623L18.0398 62.8194L18.0872 62.1811H19.4311V64.4986H18.1505L18.103 64.1451C18.082 63.9945 17.9397 63.9127 17.6762 63.8996L10.3244 63.6344L10.2611 64.2334H8.91726L8.91726 62.2597Z"/>
<path d="M17.6603 55.8378L10.2928 54.2569L10.1979 54.8755H8.91726L8.91726 52.6268L18.0398 50.6236V50.6138L18.0872 50.0541H19.4311V52.5875H18.1505L18.103 52.2144C18.082 52.1031 18.0398 52.0278 17.9766 51.9885C17.9133 51.9492 17.7974 51.946 17.6287 51.9787L16.6485 52.1849V54.4827L18.0398 54.7773L18.0872 54.1881H19.4311V56.4565H18.1505L18.103 56.1324C18.082 55.9949 17.9344 55.8967 17.6603 55.8378ZM10.688 53.3338L15.1939 54.247V52.4206L10.688 53.3044V53.3338Z"/>
<path d="M15.7473 44.4656H18.609C19.2835 45.0744 19.6208 45.8306 19.6208 46.734C19.6208 47.6374 19.1676 48.3444 18.2611 48.855C17.3441 49.3591 15.9897 49.6111 14.1979 49.6111C13.4074 49.6111 12.6959 49.5489 12.0635 49.4245C11.4311 49.2936 10.9094 49.1267 10.4983 48.9237C10.0872 48.7143 9.74467 48.472 9.47062 48.1971C8.97523 47.6734 8.72754 47.0809 8.72754 46.4197C8.72754 45.752 8.94361 45.1301 9.37576 44.554H12.0635L12.1742 45.5556H10.941C10.7829 45.5556 10.6669 45.5687 10.5932 45.5949C10.3929 45.6669 10.2928 45.9648 10.2928 46.4885C10.2928 47.7519 11.5523 48.3837 14.0714 48.3837C16.7275 48.3837 18.0556 47.8141 18.0556 46.675C18.0556 46.2233 17.9291 45.8764 17.6762 45.6342H15.3204V45.644L15.273 46.4001H13.9291V43.955H15.1939L15.2256 44.1809C15.2466 44.2856 15.2941 44.3609 15.3679 44.4067C15.4311 44.446 15.5576 44.4656 15.7473 44.4656Z"/>
<path d="M19.4311 43.399H18.1505L18.103 43.0455C18.082 42.8753 17.9344 42.7902 17.6603 42.7902H10.3086L10.2611 43.3499H8.91726L8.91726 41.5823L16.1742 38.8034V38.7838H10.3086L10.2611 39.4318H8.91726L8.91726 37.0359H10.1979L10.2453 37.3894C10.2664 37.5465 10.4298 37.625 10.7354 37.625H19.4311V38.7739L12.0635 41.6118V41.6314H18.0398L18.0872 40.9932L19.4311 40.9932V43.399Z"/>
<path d="M17.5813 35.8666H10.3086L10.2611 36.4263H8.91726L8.91726 34.0499H10.1979L10.2453 34.374C10.2769 34.5638 10.4456 34.6587 10.7513 34.6587H18.0398L18.0872 34.099H19.4311V36.4754H18.1505L18.103 36.1513C18.082 36.0531 18.0398 35.9811 17.9765 35.9353C17.9028 35.8895 17.771 35.8666 17.5813 35.8666Z"/>
<path d="M17.6603 31.6378L10.4825 31.6378L10.4825 32.4038C10.4825 32.5543 10.6459 32.6296 10.9726 32.6296H11.7157L11.605 33.6312H8.91726L8.91726 28.4956H11.605L11.7157 29.4972H10.9726C10.7934 29.4972 10.6669 29.5135 10.5932 29.5463C10.5194 29.579 10.4825 29.6575 10.4825 29.7819V30.4497H18.0398L18.0872 29.6739H19.4311V32.443H18.1505L18.103 31.9226C18.0714 31.7328 17.9238 31.6378 17.6603 31.6378Z"/>
<path d="M10.7671 26.3771H16.0161C16.7539 26.3771 17.2756 26.2691 17.5813 26.0531C17.8764 25.8305 18.024 25.5163 18.024 25.1104C18.024 24.698 17.8606 24.3805 17.5339 24.1579C17.2071 23.9288 16.7275 23.8142 16.0951 23.8142H10.3086L10.2611 24.3837H8.91726L8.91726 22.0565H10.1979L10.2453 22.3805C10.2769 22.5704 10.435 22.6653 10.7196 22.6653H16.3639C17.3863 22.6653 18.1874 22.8879 18.7671 23.333C19.3468 23.7782 19.6366 24.3936 19.6366 25.1791C19.6366 25.9647 19.3573 26.5604 18.7987 26.9663C18.2295 27.3656 17.3336 27.5653 16.1109 27.5653H10.3086L10.2611 28.1348H8.91726L8.91726 25.7585H10.1979L10.2453 26.0825C10.2664 26.1873 10.3138 26.2626 10.3876 26.3084C10.4509 26.3542 10.5773 26.3771 10.7671 26.3771Z"/>
<path d="M19.4311 21.5441H18.1505L18.103 21.2201C18.0714 21.0302 17.9238 20.9353 17.6603 20.9353H10.3086L10.2611 21.495H8.91726L8.91726 18.8044C8.91726 17.8421 9.32833 17.0926 10.1505 16.5557C10.9726 16.0124 12.19 15.7407 13.8026 15.7407C14.804 15.7407 15.6788 15.8225 16.4271 15.9862C17.165 16.1499 17.7447 16.3724 18.1663 16.6539C19.0095 17.2169 19.4311 17.9174 19.4311 18.7553V21.5441ZM10.4509 19.7373H17.9133V18.7357C17.9133 18.1727 17.5866 17.7341 16.9331 17.4199C16.2796 17.1056 15.331 16.9485 14.0872 16.9485C11.663 16.9485 10.4509 17.5868 10.4509 18.8634V19.7373Z"/>
<path d="M19.4311 10.3494L19.4311 15.0137H18.1505L18.103 14.6896C18.0714 14.4998 17.9238 14.4049 17.6603 14.4049H10.3086L10.2611 14.9646H8.91726L8.91726 10.4672L11.5418 10.4672L11.6524 11.4688H11.02C10.8408 11.4688 10.7144 11.4852 10.6406 11.5179C10.5668 11.5506 10.5299 11.6292 10.5299 11.7536L10.5299 13.2069H13.2335V10.9385L14.8461 10.9385V13.2069H17.8026V11.6259C17.8026 11.5081 17.7657 11.4328 17.692 11.4001C17.6076 11.3673 17.4759 11.351 17.2967 11.351H16.5062L16.6169 10.3494L19.4311 10.3494Z"/>
</mask>
<path d="M8.91726 62.2597L16.0635 60.5904V60.5707L8.91726 58.8916L8.91726 56.9473H10.1979L10.2453 57.2713C10.2769 57.4677 10.4614 57.5626 10.7987 57.5561L18.0398 57.3106L18.0872 56.7018H19.4311V59.0683H18.1505L18.103 58.7148C18.082 58.5381 17.9449 58.453 17.692 58.4595L12.1109 58.6461V58.6657L18.4192 60.1779V61.1108L12.1742 62.6034V62.623L18.0398 62.8194L18.0872 62.1811H19.4311V64.4986H18.1505L18.103 64.1451C18.082 63.9945 17.9397 63.9127 17.6762 63.8996L10.3244 63.6344L10.2611 64.2334H8.91726L8.91726 62.2597Z" fill="white"/>
<path d="M17.6603 55.8378L10.2928 54.2569L10.1979 54.8755H8.91726L8.91726 52.6268L18.0398 50.6236V50.6138L18.0872 50.0541H19.4311V52.5875H18.1505L18.103 52.2144C18.082 52.1031 18.0398 52.0278 17.9766 51.9885C17.9133 51.9492 17.7974 51.946 17.6287 51.9787L16.6485 52.1849V54.4827L18.0398 54.7773L18.0872 54.1881H19.4311V56.4565H18.1505L18.103 56.1324C18.082 55.9949 17.9344 55.8967 17.6603 55.8378ZM10.688 53.3338L15.1939 54.247V52.4206L10.688 53.3044V53.3338Z" fill="white"/>
<path d="M15.7473 44.4656H18.609C19.2835 45.0744 19.6208 45.8306 19.6208 46.734C19.6208 47.6374 19.1676 48.3444 18.2611 48.855C17.3441 49.3591 15.9897 49.6111 14.1979 49.6111C13.4074 49.6111 12.6959 49.5489 12.0635 49.4245C11.4311 49.2936 10.9094 49.1267 10.4983 48.9237C10.0872 48.7143 9.74467 48.472 9.47062 48.1971C8.97523 47.6734 8.72754 47.0809 8.72754 46.4197C8.72754 45.752 8.94361 45.1301 9.37576 44.554H12.0635L12.1742 45.5556H10.941C10.7829 45.5556 10.6669 45.5687 10.5932 45.5949C10.3929 45.6669 10.2928 45.9648 10.2928 46.4885C10.2928 47.7519 11.5523 48.3837 14.0714 48.3837C16.7275 48.3837 18.0556 47.8141 18.0556 46.675C18.0556 46.2233 17.9291 45.8764 17.6762 45.6342H15.3204V45.644L15.273 46.4001H13.9291V43.955H15.1939L15.2256 44.1809C15.2466 44.2856 15.2941 44.3609 15.3679 44.4067C15.4311 44.446 15.5576 44.4656 15.7473 44.4656Z" fill="white"/>
<path d="M19.4311 43.399H18.1505L18.103 43.0455C18.082 42.8753 17.9344 42.7902 17.6603 42.7902H10.3086L10.2611 43.3499H8.91726L8.91726 41.5823L16.1742 38.8034V38.7838H10.3086L10.2611 39.4318H8.91726L8.91726 37.0359H10.1979L10.2453 37.3894C10.2664 37.5465 10.4298 37.625 10.7354 37.625H19.4311V38.7739L12.0635 41.6118V41.6314H18.0398L18.0872 40.9932L19.4311 40.9932V43.399Z" fill="white"/>
<path d="M17.5813 35.8666H10.3086L10.2611 36.4263H8.91726L8.91726 34.0499H10.1979L10.2453 34.374C10.2769 34.5638 10.4456 34.6587 10.7513 34.6587H18.0398L18.0872 34.099H19.4311V36.4754H18.1505L18.103 36.1513C18.082 36.0531 18.0398 35.9811 17.9765 35.9353C17.9028 35.8895 17.771 35.8666 17.5813 35.8666Z" fill="white"/>
<path d="M17.6603 31.6378L10.4825 31.6378L10.4825 32.4038C10.4825 32.5543 10.6459 32.6296 10.9726 32.6296H11.7157L11.605 33.6312H8.91726L8.91726 28.4956H11.605L11.7157 29.4972H10.9726C10.7934 29.4972 10.6669 29.5135 10.5932 29.5463C10.5194 29.579 10.4825 29.6575 10.4825 29.7819V30.4497H18.0398L18.0872 29.6739H19.4311V32.443H18.1505L18.103 31.9226C18.0714 31.7328 17.9238 31.6378 17.6603 31.6378Z" fill="white"/>
<path d="M10.7671 26.3771H16.0161C16.7539 26.3771 17.2756 26.2691 17.5813 26.0531C17.8764 25.8305 18.024 25.5163 18.024 25.1104C18.024 24.698 17.8606 24.3805 17.5339 24.1579C17.2071 23.9288 16.7275 23.8142 16.0951 23.8142H10.3086L10.2611 24.3837H8.91726L8.91726 22.0565H10.1979L10.2453 22.3805C10.2769 22.5704 10.435 22.6653 10.7196 22.6653H16.3639C17.3863 22.6653 18.1874 22.8879 18.7671 23.333C19.3468 23.7782 19.6366 24.3936 19.6366 25.1791C19.6366 25.9647 19.3573 26.5604 18.7987 26.9663C18.2295 27.3656 17.3336 27.5653 16.1109 27.5653H10.3086L10.2611 28.1348H8.91726L8.91726 25.7585H10.1979L10.2453 26.0825C10.2664 26.1873 10.3138 26.2626 10.3876 26.3084C10.4509 26.3542 10.5773 26.3771 10.7671 26.3771Z" fill="white"/>
<path d="M19.4311 21.5441H18.1505L18.103 21.2201C18.0714 21.0302 17.9238 20.9353 17.6603 20.9353H10.3086L10.2611 21.495H8.91726L8.91726 18.8044C8.91726 17.8421 9.32833 17.0926 10.1505 16.5557C10.9726 16.0124 12.19 15.7407 13.8026 15.7407C14.804 15.7407 15.6788 15.8225 16.4271 15.9862C17.165 16.1499 17.7447 16.3724 18.1663 16.6539C19.0095 17.2169 19.4311 17.9174 19.4311 18.7553V21.5441ZM10.4509 19.7373H17.9133V18.7357C17.9133 18.1727 17.5866 17.7341 16.9331 17.4199C16.2796 17.1056 15.331 16.9485 14.0872 16.9485C11.663 16.9485 10.4509 17.5868 10.4509 18.8634V19.7373Z" fill="white"/>
<path d="M19.4311 10.3494L19.4311 15.0137H18.1505L18.103 14.6896C18.0714 14.4998 17.9238 14.4049 17.6603 14.4049H10.3086L10.2611 14.9646H8.91726L8.91726 10.4672L11.5418 10.4672L11.6524 11.4688H11.02C10.8408 11.4688 10.7144 11.4852 10.6406 11.5179C10.5668 11.5506 10.5299 11.6292 10.5299 11.7536L10.5299 13.2069H13.2335V10.9385L14.8461 10.9385V13.2069H17.8026V11.6259C17.8026 11.5081 17.7657 11.4328 17.692 11.4001C17.6076 11.3673 17.4759 11.351 17.2967 11.351H16.5062L16.6169 10.3494L19.4311 10.3494Z" fill="white"/>
<path d="M8.91726 62.2597L16.0635 60.5904V60.5707L8.91726 58.8916L8.91726 56.9473H10.1979L10.2453 57.2713C10.2769 57.4677 10.4614 57.5626 10.7987 57.5561L18.0398 57.3106L18.0872 56.7018H19.4311V59.0683H18.1505L18.103 58.7148C18.082 58.5381 17.9449 58.453 17.692 58.4595L12.1109 58.6461V58.6657L18.4192 60.1779V61.1108L12.1742 62.6034V62.623L18.0398 62.8194L18.0872 62.1811H19.4311V64.4986H18.1505L18.103 64.1451C18.082 63.9945 17.9397 63.9127 17.6762 63.8996L10.3244 63.6344L10.2611 64.2334H8.91726L8.91726 62.2597Z" stroke="#1D48B7" stroke-width="2" mask="url(#path-1-outside-1)"/>
<path d="M17.6603 55.8378L10.2928 54.2569L10.1979 54.8755H8.91726L8.91726 52.6268L18.0398 50.6236V50.6138L18.0872 50.0541H19.4311V52.5875H18.1505L18.103 52.2144C18.082 52.1031 18.0398 52.0278 17.9766 51.9885C17.9133 51.9492 17.7974 51.946 17.6287 51.9787L16.6485 52.1849V54.4827L18.0398 54.7773L18.0872 54.1881H19.4311V56.4565H18.1505L18.103 56.1324C18.082 55.9949 17.9344 55.8967 17.6603 55.8378ZM10.688 53.3338L15.1939 54.247V52.4206L10.688 53.3044V53.3338Z" stroke="#1D48B7" stroke-width="2" mask="url(#path-1-outside-1)"/>
<path d="M15.7473 44.4656H18.609C19.2835 45.0744 19.6208 45.8306 19.6208 46.734C19.6208 47.6374 19.1676 48.3444 18.2611 48.855C17.3441 49.3591 15.9897 49.6111 14.1979 49.6111C13.4074 49.6111 12.6959 49.5489 12.0635 49.4245C11.4311 49.2936 10.9094 49.1267 10.4983 48.9237C10.0872 48.7143 9.74467 48.472 9.47062 48.1971C8.97523 47.6734 8.72754 47.0809 8.72754 46.4197C8.72754 45.752 8.94361 45.1301 9.37576 44.554H12.0635L12.1742 45.5556H10.941C10.7829 45.5556 10.6669 45.5687 10.5932 45.5949C10.3929 45.6669 10.2928 45.9648 10.2928 46.4885C10.2928 47.7519 11.5523 48.3837 14.0714 48.3837C16.7275 48.3837 18.0556 47.8141 18.0556 46.675C18.0556 46.2233 17.9291 45.8764 17.6762 45.6342H15.3204V45.644L15.273 46.4001H13.9291V43.955H15.1939L15.2256 44.1809C15.2466 44.2856 15.2941 44.3609 15.3679 44.4067C15.4311 44.446 15.5576 44.4656 15.7473 44.4656Z" stroke="#1D48B7" stroke-width="2" mask="url(#path-1-outside-1)"/>
<path d="M19.4311 43.399H18.1505L18.103 43.0455C18.082 42.8753 17.9344 42.7902 17.6603 42.7902H10.3086L10.2611 43.3499H8.91726L8.91726 41.5823L16.1742 38.8034V38.7838H10.3086L10.2611 39.4318H8.91726L8.91726 37.0359H10.1979L10.2453 37.3894C10.2664 37.5465 10.4298 37.625 10.7354 37.625H19.4311V38.7739L12.0635 41.6118V41.6314H18.0398L18.0872 40.9932L19.4311 40.9932V43.399Z" stroke="#1D48B7" stroke-width="2" mask="url(#path-1-outside-1)"/>
<path d="M17.5813 35.8666H10.3086L10.2611 36.4263H8.91726L8.91726 34.0499H10.1979L10.2453 34.374C10.2769 34.5638 10.4456 34.6587 10.7513 34.6587H18.0398L18.0872 34.099H19.4311V36.4754H18.1505L18.103 36.1513C18.082 36.0531 18.0398 35.9811 17.9765 35.9353C17.9028 35.8895 17.771 35.8666 17.5813 35.8666Z" stroke="#1D48B7" stroke-width="2" mask="url(#path-1-outside-1)"/>
<path d="M17.6603 31.6378L10.4825 31.6378L10.4825 32.4038C10.4825 32.5543 10.6459 32.6296 10.9726 32.6296H11.7157L11.605 33.6312H8.91726L8.91726 28.4956H11.605L11.7157 29.4972H10.9726C10.7934 29.4972 10.6669 29.5135 10.5932 29.5463C10.5194 29.579 10.4825 29.6575 10.4825 29.7819V30.4497H18.0398L18.0872 29.6739H19.4311V32.443H18.1505L18.103 31.9226C18.0714 31.7328 17.9238 31.6378 17.6603 31.6378Z" stroke="#1D48B7" stroke-width="2" mask="url(#path-1-outside-1)"/>
<path d="M10.7671 26.3771H16.0161C16.7539 26.3771 17.2756 26.2691 17.5813 26.0531C17.8764 25.8305 18.024 25.5163 18.024 25.1104C18.024 24.698 17.8606 24.3805 17.5339 24.1579C17.2071 23.9288 16.7275 23.8142 16.0951 23.8142H10.3086L10.2611 24.3837H8.91726L8.91726 22.0565H10.1979L10.2453 22.3805C10.2769 22.5704 10.435 22.6653 10.7196 22.6653H16.3639C17.3863 22.6653 18.1874 22.8879 18.7671 23.333C19.3468 23.7782 19.6366 24.3936 19.6366 25.1791C19.6366 25.9647 19.3573 26.5604 18.7987 26.9663C18.2295 27.3656 17.3336 27.5653 16.1109 27.5653H10.3086L10.2611 28.1348H8.91726L8.91726 25.7585H10.1979L10.2453 26.0825C10.2664 26.1873 10.3138 26.2626 10.3876 26.3084C10.4509 26.3542 10.5773 26.3771 10.7671 26.3771Z" stroke="#1D48B7" stroke-width="2" mask="url(#path-1-outside-1)"/>
<path d="M19.4311 21.5441H18.1505L18.103 21.2201C18.0714 21.0302 17.9238 20.9353 17.6603 20.9353H10.3086L10.2611 21.495H8.91726L8.91726 18.8044C8.91726 17.8421 9.32833 17.0926 10.1505 16.5557C10.9726 16.0124 12.19 15.7407 13.8026 15.7407C14.804 15.7407 15.6788 15.8225 16.4271 15.9862C17.165 16.1499 17.7447 16.3724 18.1663 16.6539C19.0095 17.2169 19.4311 17.9174 19.4311 18.7553V21.5441ZM10.4509 19.7373H17.9133V18.7357C17.9133 18.1727 17.5866 17.7341 16.9331 17.4199C16.2796 17.1056 15.331 16.9485 14.0872 16.9485C11.663 16.9485 10.4509 17.5868 10.4509 18.8634V19.7373Z" stroke="#1D48B7" stroke-width="2" mask="url(#path-1-outside-1)"/>
<path d="M19.4311 10.3494L19.4311 15.0137H18.1505L18.103 14.6896C18.0714 14.4998 17.9238 14.4049 17.6603 14.4049H10.3086L10.2611 14.9646H8.91726L8.91726 10.4672L11.5418 10.4672L11.6524 11.4688H11.02C10.8408 11.4688 10.7144 11.4852 10.6406 11.5179C10.5668 11.5506 10.5299 11.6292 10.5299 11.7536L10.5299 13.2069H13.2335V10.9385L14.8461 10.9385V13.2069H17.8026V11.6259C17.8026 11.5081 17.7657 11.4328 17.692 11.4001C17.6076 11.3673 17.4759 11.351 17.2967 11.351H16.5062L16.6169 10.3494L19.4311 10.3494Z" stroke="#1D48B7" stroke-width="2" mask="url(#path-1-outside-1)"/>
<mask id="path-2-outside-2" maskUnits="userSpaceOnUse" x="20.0908" y="9.34937" width="52" height="55" fill="black">
<rect fill="white" x="20.0908" y="9.34937" width="52" height="55"/>
<path fill-rule="evenodd" clip-rule="evenodd" d="M21.0908 23.0606L32.2096 63.0921H45.2955L56.5065 22.8695V63.0921H70.9596V10.3494H47.7565L38.8112 42.4411L29.8268 10.3494H21.0908V23.0606Z"/>
</mask>
<path fill-rule="evenodd" clip-rule="evenodd" d="M21.0908 23.0606L32.2096 63.0921H45.2955L56.5065 22.8695V63.0921H70.9596V10.3494H47.7565L38.8112 42.4411L29.8268 10.3494H21.0908V23.0606Z" fill="#1D48B7"/>
<path d="M32.2096 63.0921L31.2461 63.3597L31.4495 64.0921H32.2096V63.0921ZM21.0908 23.0606H20.0908V23.1969L20.1273 23.3282L21.0908 23.0606ZM45.2955 63.0921V64.0921H46.0549L46.2588 63.3606L45.2955 63.0921ZM56.5065 22.8695H57.5065L55.5432 22.601L56.5065 22.8695ZM56.5065 63.0921H55.5065V64.0921H56.5065V63.0921ZM70.9596 63.0921V64.0921H71.9596V63.0921H70.9596ZM70.9596 10.3494H71.9596V9.34937H70.9596V10.3494ZM47.7565 10.3494V9.34937H46.9971L46.7932 10.0809L47.7565 10.3494ZM38.8112 42.4411L37.8482 42.7107L38.8133 46.1579L39.7744 42.7096L38.8112 42.4411ZM29.8268 10.3494L30.7898 10.0798L30.5853 9.34937H29.8268V10.3494ZM21.0908 10.3494V9.34937H20.0908V10.3494H21.0908ZM33.1731 62.8245L22.0543 22.793L20.1273 23.3282L31.2461 63.3597L33.1731 62.8245ZM45.2955 62.0921H32.2096V64.0921H45.2955V62.0921ZM55.5432 22.601L44.3323 62.8236L46.2588 63.3606L57.4698 23.138L55.5432 22.601ZM57.5065 63.0921V22.8695H55.5065V63.0921H57.5065ZM70.9596 62.0921H56.5065V64.0921H70.9596V62.0921ZM69.9596 10.3494V63.0921H71.9596V10.3494H69.9596ZM47.7565 11.3494H70.9596V9.34937H47.7565V11.3494ZM39.7744 42.7096L48.7198 10.6179L46.7932 10.0809L37.8479 42.1726L39.7744 42.7096ZM28.8638 10.619L37.8482 42.7107L39.7741 42.1715L30.7898 10.0798L28.8638 10.619ZM21.0908 11.3494H29.8268V9.34937H21.0908V11.3494ZM20.0908 10.3494V23.0606H22.0908V10.3494H20.0908Z" fill="white" mask="url(#path-2-outside-2)"/>
</svg>
