<svg width="50" height="49" viewBox="0 0 50 49" fill="none" xmlns="http://www.w3.org/2000/svg">
<mask id="path-1-outside-1" maskUnits="userSpaceOnUse" x="4.45508" y="5.11981" width="9" height="36" fill="black">
<rect fill="white" x="4.45508" y="5.11981" width="9" height="36"/>
<path d="M5.57366 38.3872L10.0401 37.3496V37.3373L5.57366 36.2936L5.57366 35.085H6.37405L6.4037 35.2864C6.42346 35.4085 6.53874 35.4675 6.74955 35.4635L11.2752 35.3109L11.3049 34.9324H12.1448V36.4035H11.3444L11.3148 36.1837C11.3016 36.0738 11.2159 36.0209 11.0578 36.025L7.5697 36.141V36.1532L11.5124 37.0932V37.6731L7.60923 38.6008V38.6131L11.2752 38.7351L11.3049 38.3384H12.1448V39.7789H11.3444L11.3148 39.5592C11.3016 39.4656 11.2127 39.4147 11.048 39.4066L6.4531 39.2417L6.41358 39.6141H5.57366L5.57366 38.3872Z"/>
<path d="M11.0381 34.3954L6.43334 33.4127L6.37405 33.7972H5.57366L5.57366 32.3994L11.2752 31.1542V31.1481L11.3049 30.8002H12.1448V32.375H11.3444L11.3148 32.1431C11.3016 32.0739 11.2752 32.0271 11.2357 32.0027C11.1962 31.9782 11.1237 31.9762 11.0183 31.9966L10.4057 32.1247V33.553L11.2752 33.7362L11.3049 33.3699H12.1448V34.7799H11.3444L11.3148 34.5785C11.3016 34.493 11.2094 34.432 11.0381 34.3954ZM6.68037 32.8389L9.49658 33.4066V32.2712L6.68037 32.8206V32.8389Z"/>
<path d="M9.84243 27.3264H11.631C12.0526 27.7049 12.2634 28.1749 12.2634 28.7364C12.2634 29.298 11.9801 29.7375 11.4136 30.0549C10.8405 30.3682 9.99394 30.5249 8.87405 30.5249C8.37998 30.5249 7.93532 30.4862 7.54006 30.4089C7.1448 30.3275 6.81871 30.2237 6.5618 30.0976C6.30488 29.9674 6.09078 29.8168 5.9195 29.6459C5.60989 29.3204 5.45508 28.9521 5.45508 28.5411C5.45508 28.126 5.59012 27.7395 5.86022 27.3814H7.54006L7.60923 28.004H6.83848C6.73966 28.004 6.6672 28.0121 6.62109 28.0284C6.49592 28.0731 6.43334 28.2583 6.43334 28.5838C6.43334 29.3692 7.22056 29.7619 8.795 29.7619C10.4551 29.7619 11.2851 29.4079 11.2851 28.6998C11.2851 28.419 11.2061 28.2034 11.048 28.0528H9.57563V28.0589L9.54599 28.5289H8.70607V27.009H9.49658L9.51634 27.1494C9.52952 27.2145 9.55916 27.2613 9.60528 27.2898C9.6448 27.3142 9.72385 27.3264 9.84243 27.3264Z"/>
<path d="M12.1448 26.6634H11.3444L11.3148 26.4437C11.3016 26.3379 11.2094 26.285 11.0381 26.285H6.44322L6.41358 26.6329H5.57366L5.57366 25.5342L10.1092 23.8068V23.7946H6.44322L6.41358 24.1974H5.57366L5.57366 22.7081H6.37405L6.40369 22.9278C6.41687 23.0255 6.51898 23.0743 6.71002 23.0743H12.1448V23.7885L7.54006 25.5525V25.5647H11.2752L11.3049 25.168L12.1448 25.168V26.6634Z"/>
<path d="M10.9887 21.9813H6.44322L6.41358 22.3292H5.57365L5.57365 20.8521H6.37405L6.40369 21.0535C6.42346 21.1715 6.52886 21.2305 6.7199 21.2305H11.2752L11.3049 20.8826H12.1448V22.3597H11.3444L11.3148 22.1583C11.3016 22.0972 11.2752 22.0525 11.2357 22.024C11.1896 21.9955 11.1073 21.9813 10.9887 21.9813Z"/>
<path d="M11.0381 19.3527L6.55192 19.3527L6.55192 19.8288C6.55192 19.9224 6.65402 19.9692 6.85824 19.9692H7.32267L7.2535 20.5918H5.57365L5.57365 17.3995H7.2535L7.32267 18.0221H6.85824C6.74625 18.0221 6.6672 18.0322 6.62109 18.0526C6.57497 18.0729 6.55192 18.1218 6.55192 18.1991V18.6141H11.2752L11.3049 18.1319H12.1448V19.8532H11.3444L11.3148 19.5297C11.295 19.4117 11.2028 19.3527 11.0381 19.3527Z"/>
<path d="M6.72978 16.0826H10.0104C10.4715 16.0826 10.7976 16.0155 10.9887 15.8812C11.1731 15.7429 11.2654 15.5475 11.2654 15.2953C11.2654 15.0389 11.1632 14.8415 10.959 14.7032C10.7548 14.5608 10.4551 14.4895 10.0598 14.4895H6.44322L6.41358 14.8436H5.57365L5.57365 13.397H6.37405L6.40369 13.5984C6.42346 13.7164 6.52227 13.7754 6.70014 13.7754H10.2278C10.8668 13.7754 11.3675 13.9137 11.7298 14.1905C12.0921 14.4672 12.2733 14.8497 12.2733 15.338C12.2733 15.8263 12.0987 16.1966 11.7495 16.4489C11.3938 16.6971 10.8339 16.8212 10.0697 16.8212H6.44322L6.41358 17.1752H5.57365L5.57365 15.6981H6.37405L6.40369 15.8995C6.41687 15.9646 6.44651 16.0114 6.49263 16.0399C6.53215 16.0684 6.6112 16.0826 6.72978 16.0826Z"/>
<path d="M12.1448 13.0785H11.3444L11.3148 12.877C11.295 12.759 11.2028 12.7 11.0381 12.7H6.44322L6.41357 13.0479H5.57365L5.57365 11.3755C5.57365 10.7773 5.83057 10.3114 6.34441 9.97769C6.85824 9.63994 7.61911 9.47107 8.62701 9.47107C9.25284 9.47107 9.79961 9.52194 10.2673 9.62367C10.7285 9.7254 11.0908 9.86375 11.3543 10.0387C11.8813 10.3887 12.1448 10.8241 12.1448 11.345V13.0785ZM6.53215 11.9553H11.1962V11.3327C11.1962 10.9828 10.992 10.7102 10.5835 10.5148C10.1751 10.3195 9.58222 10.2218 8.80488 10.2218C7.28973 10.2218 6.53215 10.6186 6.53215 11.4121V11.9553Z"/>
<path d="M12.1448 6.11981L12.1448 9.01915H11.3444L11.3148 8.81772C11.295 8.69971 11.2028 8.64071 11.0381 8.64071H6.44322L6.41357 8.98863H5.57365L5.57365 6.19306L7.21397 6.19306L7.28314 6.81565H6.88788C6.77589 6.81565 6.69684 6.82583 6.65073 6.84617C6.60462 6.86652 6.58156 6.91535 6.58156 6.99266V7.89604H8.27128V6.48604L9.27919 6.48604V7.89604H11.127V6.91331C11.127 6.84007 11.104 6.79327 11.0578 6.77293C11.0051 6.75258 10.9228 6.74241 10.8108 6.74241H10.3167L10.3859 6.11981L12.1448 6.11981Z"/>
</mask>
<path d="M5.57366 38.3872L10.0401 37.3496V37.3373L5.57366 36.2936L5.57366 35.085H6.37405L6.4037 35.2864C6.42346 35.4085 6.53874 35.4675 6.74955 35.4635L11.2752 35.3109L11.3049 34.9324H12.1448V36.4035H11.3444L11.3148 36.1837C11.3016 36.0738 11.2159 36.0209 11.0578 36.025L7.5697 36.141V36.1532L11.5124 37.0932V37.6731L7.60923 38.6008V38.6131L11.2752 38.7351L11.3049 38.3384H12.1448V39.7789H11.3444L11.3148 39.5592C11.3016 39.4656 11.2127 39.4147 11.048 39.4066L6.4531 39.2417L6.41358 39.6141H5.57366L5.57366 38.3872Z" fill="white"/>
<path d="M11.0381 34.3954L6.43334 33.4127L6.37405 33.7972H5.57366L5.57366 32.3994L11.2752 31.1542V31.1481L11.3049 30.8002H12.1448V32.375H11.3444L11.3148 32.1431C11.3016 32.0739 11.2752 32.0271 11.2357 32.0027C11.1962 31.9782 11.1237 31.9762 11.0183 31.9966L10.4057 32.1247V33.553L11.2752 33.7362L11.3049 33.3699H12.1448V34.7799H11.3444L11.3148 34.5785C11.3016 34.493 11.2094 34.432 11.0381 34.3954ZM6.68037 32.8389L9.49658 33.4066V32.2712L6.68037 32.8206V32.8389Z" fill="white"/>
<path d="M9.84243 27.3264H11.631C12.0526 27.7049 12.2634 28.1749 12.2634 28.7364C12.2634 29.298 11.9801 29.7375 11.4136 30.0549C10.8405 30.3682 9.99394 30.5249 8.87405 30.5249C8.37998 30.5249 7.93532 30.4862 7.54006 30.4089C7.1448 30.3275 6.81871 30.2237 6.5618 30.0976C6.30488 29.9674 6.09078 29.8168 5.9195 29.6459C5.60989 29.3204 5.45508 28.9521 5.45508 28.5411C5.45508 28.126 5.59012 27.7395 5.86022 27.3814H7.54006L7.60923 28.004H6.83848C6.73966 28.004 6.6672 28.0121 6.62109 28.0284C6.49592 28.0731 6.43334 28.2583 6.43334 28.5838C6.43334 29.3692 7.22056 29.7619 8.795 29.7619C10.4551 29.7619 11.2851 29.4079 11.2851 28.6998C11.2851 28.419 11.2061 28.2034 11.048 28.0528H9.57563V28.0589L9.54599 28.5289H8.70607V27.009H9.49658L9.51634 27.1494C9.52952 27.2145 9.55916 27.2613 9.60528 27.2898C9.6448 27.3142 9.72385 27.3264 9.84243 27.3264Z" fill="white"/>
<path d="M12.1448 26.6634H11.3444L11.3148 26.4437C11.3016 26.3379 11.2094 26.285 11.0381 26.285H6.44322L6.41358 26.6329H5.57366L5.57366 25.5342L10.1092 23.8068V23.7946H6.44322L6.41358 24.1974H5.57366L5.57366 22.7081H6.37405L6.40369 22.9278C6.41687 23.0255 6.51898 23.0743 6.71002 23.0743H12.1448V23.7885L7.54006 25.5525V25.5647H11.2752L11.3049 25.168L12.1448 25.168V26.6634Z" fill="white"/>
<path d="M10.9887 21.9813H6.44322L6.41358 22.3292H5.57365L5.57365 20.8521H6.37405L6.40369 21.0535C6.42346 21.1715 6.52886 21.2305 6.7199 21.2305H11.2752L11.3049 20.8826H12.1448V22.3597H11.3444L11.3148 22.1583C11.3016 22.0972 11.2752 22.0525 11.2357 22.024C11.1896 21.9955 11.1073 21.9813 10.9887 21.9813Z" fill="white"/>
<path d="M11.0381 19.3527L6.55192 19.3527L6.55192 19.8288C6.55192 19.9224 6.65402 19.9692 6.85824 19.9692H7.32267L7.2535 20.5918H5.57365L5.57365 17.3995H7.2535L7.32267 18.0221H6.85824C6.74625 18.0221 6.6672 18.0322 6.62109 18.0526C6.57497 18.0729 6.55192 18.1218 6.55192 18.1991V18.6141H11.2752L11.3049 18.1319H12.1448V19.8532H11.3444L11.3148 19.5297C11.295 19.4117 11.2028 19.3527 11.0381 19.3527Z" fill="white"/>
<path d="M6.72978 16.0826H10.0104C10.4715 16.0826 10.7976 16.0155 10.9887 15.8812C11.1731 15.7429 11.2654 15.5475 11.2654 15.2953C11.2654 15.0389 11.1632 14.8415 10.959 14.7032C10.7548 14.5608 10.4551 14.4895 10.0598 14.4895H6.44322L6.41358 14.8436H5.57365L5.57365 13.397H6.37405L6.40369 13.5984C6.42346 13.7164 6.52227 13.7754 6.70014 13.7754H10.2278C10.8668 13.7754 11.3675 13.9137 11.7298 14.1905C12.0921 14.4672 12.2733 14.8497 12.2733 15.338C12.2733 15.8263 12.0987 16.1966 11.7495 16.4489C11.3938 16.6971 10.8339 16.8212 10.0697 16.8212H6.44322L6.41358 17.1752H5.57365L5.57365 15.6981H6.37405L6.40369 15.8995C6.41687 15.9646 6.44651 16.0114 6.49263 16.0399C6.53215 16.0684 6.6112 16.0826 6.72978 16.0826Z" fill="white"/>
<path d="M12.1448 13.0785H11.3444L11.3148 12.877C11.295 12.759 11.2028 12.7 11.0381 12.7H6.44322L6.41357 13.0479H5.57365L5.57365 11.3755C5.57365 10.7773 5.83057 10.3114 6.34441 9.97769C6.85824 9.63994 7.61911 9.47107 8.62701 9.47107C9.25284 9.47107 9.79961 9.52194 10.2673 9.62367C10.7285 9.7254 11.0908 9.86375 11.3543 10.0387C11.8813 10.3887 12.1448 10.8241 12.1448 11.345V13.0785ZM6.53215 11.9553H11.1962V11.3327C11.1962 10.9828 10.992 10.7102 10.5835 10.5148C10.1751 10.3195 9.58222 10.2218 8.80488 10.2218C7.28973 10.2218 6.53215 10.6186 6.53215 11.4121V11.9553Z" fill="white"/>
<path d="M12.1448 6.11981L12.1448 9.01915H11.3444L11.3148 8.81772C11.295 8.69971 11.2028 8.64071 11.0381 8.64071H6.44322L6.41357 8.98863H5.57365L5.57365 6.19306L7.21397 6.19306L7.28314 6.81565H6.88788C6.77589 6.81565 6.69684 6.82583 6.65073 6.84617C6.60462 6.86652 6.58156 6.91535 6.58156 6.99266V7.89604H8.27128V6.48604L9.27919 6.48604V7.89604H11.127V6.91331C11.127 6.84007 11.104 6.79327 11.0578 6.77293C11.0051 6.75258 10.9228 6.74241 10.8108 6.74241H10.3167L10.3859 6.11981L12.1448 6.11981Z" fill="white"/>
<path d="M5.57366 38.3872L10.0401 37.3496V37.3373L5.57366 36.2936L5.57366 35.085H6.37405L6.4037 35.2864C6.42346 35.4085 6.53874 35.4675 6.74955 35.4635L11.2752 35.3109L11.3049 34.9324H12.1448V36.4035H11.3444L11.3148 36.1837C11.3016 36.0738 11.2159 36.0209 11.0578 36.025L7.5697 36.141V36.1532L11.5124 37.0932V37.6731L7.60923 38.6008V38.6131L11.2752 38.7351L11.3049 38.3384H12.1448V39.7789H11.3444L11.3148 39.5592C11.3016 39.4656 11.2127 39.4147 11.048 39.4066L6.4531 39.2417L6.41358 39.6141H5.57366L5.57366 38.3872Z" stroke="#1D48B7" mask="url(#path-1-outside-1)"/>
<path d="M11.0381 34.3954L6.43334 33.4127L6.37405 33.7972H5.57366L5.57366 32.3994L11.2752 31.1542V31.1481L11.3049 30.8002H12.1448V32.375H11.3444L11.3148 32.1431C11.3016 32.0739 11.2752 32.0271 11.2357 32.0027C11.1962 31.9782 11.1237 31.9762 11.0183 31.9966L10.4057 32.1247V33.553L11.2752 33.7362L11.3049 33.3699H12.1448V34.7799H11.3444L11.3148 34.5785C11.3016 34.493 11.2094 34.432 11.0381 34.3954ZM6.68037 32.8389L9.49658 33.4066V32.2712L6.68037 32.8206V32.8389Z" stroke="#1D48B7" mask="url(#path-1-outside-1)"/>
<path d="M9.84243 27.3264H11.631C12.0526 27.7049 12.2634 28.1749 12.2634 28.7364C12.2634 29.298 11.9801 29.7375 11.4136 30.0549C10.8405 30.3682 9.99394 30.5249 8.87405 30.5249C8.37998 30.5249 7.93532 30.4862 7.54006 30.4089C7.1448 30.3275 6.81871 30.2237 6.5618 30.0976C6.30488 29.9674 6.09078 29.8168 5.9195 29.6459C5.60989 29.3204 5.45508 28.9521 5.45508 28.5411C5.45508 28.126 5.59012 27.7395 5.86022 27.3814H7.54006L7.60923 28.004H6.83848C6.73966 28.004 6.6672 28.0121 6.62109 28.0284C6.49592 28.0731 6.43334 28.2583 6.43334 28.5838C6.43334 29.3692 7.22056 29.7619 8.795 29.7619C10.4551 29.7619 11.2851 29.4079 11.2851 28.6998C11.2851 28.419 11.2061 28.2034 11.048 28.0528H9.57563V28.0589L9.54599 28.5289H8.70607V27.009H9.49658L9.51634 27.1494C9.52952 27.2145 9.55916 27.2613 9.60528 27.2898C9.6448 27.3142 9.72385 27.3264 9.84243 27.3264Z" stroke="#1D48B7" mask="url(#path-1-outside-1)"/>
<path d="M12.1448 26.6634H11.3444L11.3148 26.4437C11.3016 26.3379 11.2094 26.285 11.0381 26.285H6.44322L6.41358 26.6329H5.57366L5.57366 25.5342L10.1092 23.8068V23.7946H6.44322L6.41358 24.1974H5.57366L5.57366 22.7081H6.37405L6.40369 22.9278C6.41687 23.0255 6.51898 23.0743 6.71002 23.0743H12.1448V23.7885L7.54006 25.5525V25.5647H11.2752L11.3049 25.168L12.1448 25.168V26.6634Z" stroke="#1D48B7" mask="url(#path-1-outside-1)"/>
<path d="M10.9887 21.9813H6.44322L6.41358 22.3292H5.57365L5.57365 20.8521H6.37405L6.40369 21.0535C6.42346 21.1715 6.52886 21.2305 6.7199 21.2305H11.2752L11.3049 20.8826H12.1448V22.3597H11.3444L11.3148 22.1583C11.3016 22.0972 11.2752 22.0525 11.2357 22.024C11.1896 21.9955 11.1073 21.9813 10.9887 21.9813Z" stroke="#1D48B7" mask="url(#path-1-outside-1)"/>
<path d="M11.0381 19.3527L6.55192 19.3527L6.55192 19.8288C6.55192 19.9224 6.65402 19.9692 6.85824 19.9692H7.32267L7.2535 20.5918H5.57365L5.57365 17.3995H7.2535L7.32267 18.0221H6.85824C6.74625 18.0221 6.6672 18.0322 6.62109 18.0526C6.57497 18.0729 6.55192 18.1218 6.55192 18.1991V18.6141H11.2752L11.3049 18.1319H12.1448V19.8532H11.3444L11.3148 19.5297C11.295 19.4117 11.2028 19.3527 11.0381 19.3527Z" stroke="#1D48B7" mask="url(#path-1-outside-1)"/>
<path d="M6.72978 16.0826H10.0104C10.4715 16.0826 10.7976 16.0155 10.9887 15.8812C11.1731 15.7429 11.2654 15.5475 11.2654 15.2953C11.2654 15.0389 11.1632 14.8415 10.959 14.7032C10.7548 14.5608 10.4551 14.4895 10.0598 14.4895H6.44322L6.41358 14.8436H5.57365L5.57365 13.397H6.37405L6.40369 13.5984C6.42346 13.7164 6.52227 13.7754 6.70014 13.7754H10.2278C10.8668 13.7754 11.3675 13.9137 11.7298 14.1905C12.0921 14.4672 12.2733 14.8497 12.2733 15.338C12.2733 15.8263 12.0987 16.1966 11.7495 16.4489C11.3938 16.6971 10.8339 16.8212 10.0697 16.8212H6.44322L6.41358 17.1752H5.57365L5.57365 15.6981H6.37405L6.40369 15.8995C6.41687 15.9646 6.44651 16.0114 6.49263 16.0399C6.53215 16.0684 6.6112 16.0826 6.72978 16.0826Z" stroke="#1D48B7" mask="url(#path-1-outside-1)"/>
<path d="M12.1448 13.0785H11.3444L11.3148 12.877C11.295 12.759 11.2028 12.7 11.0381 12.7H6.44322L6.41357 13.0479H5.57365L5.57365 11.3755C5.57365 10.7773 5.83057 10.3114 6.34441 9.97769C6.85824 9.63994 7.61911 9.47107 8.62701 9.47107C9.25284 9.47107 9.79961 9.52194 10.2673 9.62367C10.7285 9.7254 11.0908 9.86375 11.3543 10.0387C11.8813 10.3887 12.1448 10.8241 12.1448 11.345V13.0785ZM6.53215 11.9553H11.1962V11.3327C11.1962 10.9828 10.992 10.7102 10.5835 10.5148C10.1751 10.3195 9.58222 10.2218 8.80488 10.2218C7.28973 10.2218 6.53215 10.6186 6.53215 11.4121V11.9553Z" stroke="#1D48B7" mask="url(#path-1-outside-1)"/>
<path d="M12.1448 6.11981L12.1448 9.01915H11.3444L11.3148 8.81772C11.295 8.69971 11.2028 8.64071 11.0381 8.64071H6.44322L6.41357 8.98863H5.57365L5.57365 6.19306L7.21397 6.19306L7.28314 6.81565H6.88788C6.77589 6.81565 6.69684 6.82583 6.65073 6.84617C6.60462 6.86652 6.58156 6.91535 6.58156 6.99266V7.89604H8.27128V6.48604L9.27919 6.48604V7.89604H11.127V6.91331C11.127 6.84007 11.104 6.79327 11.0578 6.77293C11.0051 6.75258 10.9228 6.74241 10.8108 6.74241H10.3167L10.3859 6.11981L12.1448 6.11981Z" stroke="#1D48B7" mask="url(#path-1-outside-1)"/>
<mask id="path-2-outside-2" maskUnits="userSpaceOnUse" x="12.1826" y="5.11981" width="34" height="35" fill="black">
<rect fill="white" x="12.1826" y="5.11981" width="34" height="35"/>
<path fill-rule="evenodd" clip-rule="evenodd" d="M13.1826 14.0213L20.1318 38.9046H28.3105L35.3173 13.9023V38.9046H44.3505V6.11981H29.8486L24.2578 26.068L18.6425 6.11981H13.1826V14.0213Z"/>
</mask>
<path fill-rule="evenodd" clip-rule="evenodd" d="M13.1826 14.0213L20.1318 38.9046H28.3105L35.3173 13.9023V38.9046H44.3505V6.11981H29.8486L24.2578 26.068L18.6425 6.11981H13.1826V14.0213Z" fill="#1D48B7"/>
<path d="M20.1318 38.9046L19.1687 39.1736L19.3728 39.9046H20.1318V38.9046ZM13.1826 14.0213H12.1826V14.1583L12.2195 14.2903L13.1826 14.0213ZM28.3105 38.9046V39.9046H29.0688L29.2734 39.1745L28.3105 38.9046ZM35.3173 13.9023H36.3173L34.3544 13.6324L35.3173 13.9023ZM35.3173 38.9046H34.3173V39.9046H35.3173V38.9046ZM44.3505 38.9046V39.9046H45.3505V38.9046H44.3505ZM44.3505 6.11981H45.3505V5.11981H44.3505V6.11981ZM29.8486 6.11981V5.11981H29.0903L28.8857 5.84994L29.8486 6.11981ZM24.2578 26.068L23.2952 26.339L24.2599 29.766L25.2207 26.3379L24.2578 26.068ZM18.6425 6.11981L19.6051 5.84885L19.3999 5.11981H18.6425V6.11981ZM13.1826 6.11981V5.11981H12.1826V6.11981H13.1826ZM21.0949 38.6357L14.1458 13.7523L12.2195 14.2903L19.1687 39.1736L21.0949 38.6357ZM28.3105 37.9046H20.1318V39.9046H28.3105V37.9046ZM34.3544 13.6324L27.3476 38.6348L29.2734 39.1745L36.2802 14.1721L34.3544 13.6324ZM36.3173 38.9046V13.9023H34.3173V38.9046H36.3173ZM44.3505 37.9046H35.3173V39.9046H44.3505V37.9046ZM43.3505 6.11981V38.9046H45.3505V6.11981H43.3505ZM29.8486 7.11981H44.3505V5.11981H29.8486V7.11981ZM25.2207 26.3379L30.8115 6.38968L28.8857 5.84994L23.2949 25.7981L25.2207 26.3379ZM17.6799 6.39077L23.2952 26.339L25.2204 25.797L19.6051 5.84885L17.6799 6.39077ZM13.1826 7.11981H18.6425V5.11981H13.1826V7.11981ZM12.1826 6.11981V14.0213H14.1826V6.11981H12.1826Z" fill="white" mask="url(#path-2-outside-2)"/>
</svg>
