<svg width="80" height="80" viewBox="0 0 80 80" fill="none" xmlns="http://www.w3.org/2000/svg">
<path d="M40 0C17.9449 0 0 17.9449 0 40C0 62.0551 17.9449 80 40 80C62.0551 80 80 62.0551 80 40C80 17.9449 62.0551 0 40 0ZM62.3559 29.4737L36.792 54.8371C35.2882 56.3409 32.8822 56.4411 31.2782 54.9373L17.7444 42.6065C16.1404 41.1028 16.0401 38.5965 17.4436 36.9925C18.9474 35.3885 21.4536 35.2882 23.0576 36.792L33.7845 46.6165L56.6416 23.7594C58.2456 22.1554 60.7519 22.1554 62.3559 23.7594C63.9599 25.3634 63.9599 27.8697 62.3559 29.4737Z" fill="#176438"/>
</svg>
